<svg width="211" height="196" viewBox="0 0 211 196" fill="none" xmlns="http://www.w3.org/2000/svg">
<g clip-path="url(#clip0_746_6105)">
<path d="M105.507 150.277C106.329 150.277 106.995 149.605 106.995 148.776C106.995 147.948 106.329 147.276 105.507 147.276C104.686 147.276 104.02 147.948 104.02 148.776C104.02 149.605 104.686 150.277 105.507 150.277Z" fill="#CFCFCF"/>
<path d="M62.2904 37.3015V43.8859" stroke="#BABABA" stroke-linecap="round" stroke-linejoin="round"/>
<path d="M59.0117 40.5935H65.5542" stroke="#BABABA" stroke-linecap="round" stroke-linejoin="round"/>
<path d="M136.596 78.8288C123.89 78.8288 110.957 78.3082 98.8587 74.9088C86.988 71.586 76.0889 65.1395 66.3738 57.6823C60.0134 52.8282 54.2299 48.9541 45.972 49.536C37.8934 49.977 30.168 53.0201 23.9309 58.2182C13.4264 67.4976 15.0051 84.6935 19.21 96.7292C25.5248 114.905 44.7425 127.569 61.076 135.761C79.9446 145.27 100.68 150.798 121.461 153.967C139.677 156.769 163.085 158.791 178.872 146.801C193.368 135.761 197.346 110.587 193.793 93.5901C192.932 88.5689 190.281 84.0383 186.34 80.8501C176.154 73.3317 160.959 78.3541 149.514 78.5991C145.263 78.691 140.937 78.7982 136.596 78.8288Z" fill="#F2F2F2"/>
<path d="M116.042 28.3282C116.864 28.3282 117.53 27.6563 117.53 26.8275C117.53 25.9988 116.864 25.3269 116.042 25.3269C115.221 25.3269 114.555 25.9988 114.555 26.8275C114.555 27.6563 115.221 28.3282 116.042 28.3282Z" fill="#CFCFCF"/>
<path d="M38.7465 145.178V151.762" stroke="#BABABA" stroke-linecap="round" stroke-linejoin="round"/>
<path d="M35.4829 148.47H42.0102" stroke="#BABABA" stroke-linecap="round" stroke-linejoin="round"/>
<path d="M106.115 183.766C136.891 183.766 161.84 182.196 161.84 180.259C161.84 178.322 136.891 176.752 106.115 176.752C75.3385 176.752 50.3895 178.322 50.3895 180.259C50.3895 182.196 75.3385 183.766 106.115 183.766Z" fill="#F2F2F2"/>
<path d="M150.91 142.697H54.655C54.0109 142.697 53.3745 142.555 52.7899 142.282C52.2053 142.009 51.6865 141.612 51.2693 141.116C50.8521 140.621 50.5465 140.041 50.3736 139.415C50.2007 138.789 50.1647 138.132 50.268 137.491L62.5789 62.1842C62.7452 61.1361 63.277 60.1823 64.0785 59.4946C64.8799 58.8068 65.8985 58.4302 66.9507 58.4326H163.206C163.85 58.4327 164.486 58.5742 165.07 58.8473C165.654 59.1203 166.172 59.5184 166.588 60.0139C167.004 60.5094 167.308 61.0903 167.479 61.7163C167.65 62.3423 167.684 62.9984 167.578 63.6389L155.328 138.946C155.157 140 154.618 140.959 153.808 141.647C152.998 142.335 151.97 142.708 150.91 142.697Z" fill="#D2D2D2"/>
<path d="M152.096 56.4632L94.9613 30.7304C93.2771 29.9718 91.3023 30.7341 90.5503 32.433L72.4421 73.3447C71.6902 75.0436 72.4459 77.0357 74.1301 77.7942L131.265 103.527C132.949 104.286 134.924 103.523 135.676 101.824L153.784 60.9127C154.536 59.2138 153.781 57.2217 152.096 56.4632Z" fill="white" stroke="#BABABA" stroke-linecap="round" stroke-linejoin="round"/>
<path d="M103.337 64.3892C104.841 62.2605 107.028 60.7218 109.528 60.0338C112.028 59.3458 114.687 59.5508 117.054 60.6141C119.421 61.6774 121.351 63.5336 122.517 65.8681C123.682 68.2026 124.012 70.8719 123.45 73.4236" stroke="#BABABA" stroke-width="0.68" stroke-linecap="round" stroke-linejoin="round"/>
<path d="M130.661 62.0767C131.524 62.0767 132.224 61.3706 132.224 60.4996C132.224 59.6285 131.524 58.9224 130.661 58.9224C129.797 58.9224 129.097 59.6285 129.097 60.4996C129.097 61.3706 129.797 62.0767 130.661 62.0767Z" fill="#BABABA"/>
<path d="M108.012 51.8787C108.876 51.8787 109.576 51.1726 109.576 50.3016C109.576 49.4305 108.876 48.7244 108.012 48.7244C107.149 48.7244 106.449 49.4305 106.449 50.3016C106.449 51.1726 107.149 51.8787 108.012 51.8787Z" fill="#BABABA"/>
<path d="M150.485 142.667H53.7594C52.5824 142.663 51.4551 142.188 50.6242 141.347C49.7934 140.506 49.3269 139.367 49.3269 138.18V69.3811C49.3127 68.7842 49.4168 68.1905 49.6331 67.6348C49.8493 67.079 50.1733 66.5724 50.5861 66.1446C50.9989 65.7167 51.4922 65.3763 52.0371 65.1433C52.582 64.9102 53.1676 64.7892 53.7594 64.7874H88.9919C89.8094 64.7904 90.6103 65.0206 91.3066 65.4529C92.0028 65.8851 92.5675 66.5025 92.9386 67.2374L97.9632 77.1599C98.3329 77.8958 98.8973 78.5142 99.5938 78.9466C100.29 79.379 101.092 79.6086 101.91 79.6099H150.485C151.661 79.6099 152.788 80.0809 153.62 80.9195C154.451 81.758 154.918 82.8953 154.918 84.0811V138.18C154.918 139.367 154.451 140.506 153.621 141.347C152.79 142.188 151.662 142.663 150.485 142.667Z" fill="white" stroke="#BABABA" stroke-linecap="round" stroke-linejoin="round"/>
<path d="M135.594 81.9526C130.006 81.9496 124.543 83.6183 119.895 86.7477C115.248 89.8771 111.624 94.3266 109.484 99.5334C107.343 104.74 106.782 110.47 107.87 115.999C108.958 121.528 111.648 126.607 115.598 130.594C119.548 134.581 124.582 137.296 130.062 138.397C135.542 139.498 141.223 138.934 146.386 136.778C151.549 134.622 155.962 130.969 159.067 126.283C162.171 121.596 163.829 116.086 163.829 110.449C163.829 102.894 160.854 95.6482 155.56 90.3045C150.265 84.9608 143.084 81.9567 135.594 81.9526Z" fill="white" stroke="#BABABA" stroke-linecap="round" stroke-linejoin="round"/>
<path d="M155.692 131.121L163.221 138.716" stroke="#BABABA" stroke-linecap="round" stroke-linejoin="round"/>
<path d="M162.37 135.026L160.031 137.494C158.983 138.601 159.022 140.355 160.119 141.413L180.418 160.988C181.515 162.046 183.254 162.006 184.303 160.9L186.642 158.431C187.691 157.325 187.651 155.571 186.555 154.513L166.255 134.938C165.158 133.88 163.419 133.92 162.37 135.026Z" fill="#D2D2D2"/>
<path d="M177.399 26.8276V33.4273" stroke="#BABABA" stroke-linecap="round" stroke-linejoin="round"/>
<path d="M174.12 30.1353H180.663" stroke="#BABABA" stroke-linecap="round" stroke-linejoin="round"/>
</g>
<defs>
<clipPath id="clip0_746_6105">
<rect width="211" height="196" fill="white"/>
</clipPath>
</defs>
</svg>
