<svg width="211" height="194" viewBox="0 0 211 194" fill="none" xmlns="http://www.w3.org/2000/svg">
<g clip-path="url(#clip0_746_6128)">
<path d="M132.468 78.8191C120.371 78.8191 108.058 78.3277 96.5397 75.1194C85.2382 71.9833 74.8617 65.899 65.6123 58.8608C59.5569 54.2795 54.0507 50.6376 46.1888 51.1868C38.4909 51.6082 31.1332 54.4965 25.2044 59.4244C15.2036 68.0957 16.7066 84.3253 20.7098 95.728C26.7219 112.897 45.0182 124.791 60.5686 132.566C78.5325 141.541 98.274 146.744 118.059 149.75C135.401 152.38 157.686 154.302 172.717 142.972C186.518 132.566 190.305 108.807 186.923 92.7653C186.103 88.022 183.58 83.7411 179.827 80.7268C170.13 73.6453 155.663 78.3711 144.766 78.6168C140.72 78.7035 136.601 78.8046 132.468 78.8191Z" fill="#F2F2F2"/>
<path d="M102.87 177.859C132.17 177.859 155.923 176.378 155.923 174.55C155.923 172.722 132.17 171.24 102.87 171.24C73.5691 171.24 49.8162 172.722 49.8162 174.55C49.8162 176.378 73.5691 177.859 102.87 177.859Z" fill="#F2F2F2"/>
<path d="M157.079 61.1587V67.3875" stroke="#BABABA" stroke-linecap="round" stroke-linejoin="round"/>
<path d="M153.972 64.2805H160.187" stroke="#BABABA" stroke-linecap="round" stroke-linejoin="round"/>
<path d="M52.7066 113.504V119.719" stroke="#BABABA" stroke-linecap="round" stroke-linejoin="round"/>
<path d="M49.585 116.611H55.8138" stroke="#BABABA" stroke-linecap="round" stroke-linejoin="round"/>
<path d="M43.9921 35.2607V41.4751" stroke="#BABABA" stroke-linecap="round" stroke-linejoin="round"/>
<path d="M40.8704 38.3679H47.0993" stroke="#BABABA" stroke-linecap="round" stroke-linejoin="round"/>
<path d="M111.714 20.8377C112.497 20.8377 113.131 20.2036 113.131 19.4214C113.131 18.6392 112.497 18.0051 111.714 18.0051C110.932 18.0051 110.298 18.6392 110.298 19.4214C110.298 20.2036 110.932 20.8377 111.714 20.8377Z" fill="#CFCFCF"/>
<path d="M108.333 158.999C109.115 158.999 109.749 158.365 109.749 157.583C109.749 156.801 109.115 156.167 108.333 156.167C107.55 156.167 106.916 156.801 106.916 157.583C106.916 158.365 107.55 158.999 108.333 158.999Z" fill="#CFCFCF"/>
<path d="M138.748 27.5962L56.323 36.1576C54.4415 36.353 53.0746 38.0368 53.2701 39.9183L64.5429 148.447C64.7383 150.329 66.422 151.696 68.3036 151.5L150.728 142.939C152.61 142.744 153.977 141.06 153.781 139.178L142.508 30.6492C142.313 28.7677 140.629 27.4008 138.748 27.5962Z" fill="#D2D2D2"/>
<path d="M135.201 32.6057L60.8116 40.3324C58.9301 40.5278 57.5632 42.2116 57.7587 44.0931L67.9535 142.244C68.1489 144.125 69.8326 145.492 71.7142 145.297L146.103 137.57C147.985 137.374 149.352 135.691 149.156 133.809L138.961 35.6586C138.766 33.7771 137.082 32.4102 135.201 32.6057Z" fill="white" stroke="#BABABA" stroke-linecap="round" stroke-linejoin="round"/>
<path d="M122.366 37.414L121.209 26.2859C121.151 25.824 120.915 25.4033 120.55 25.1141C120.185 24.825 119.721 24.6905 119.258 24.7395L105.5 26.1847C105.388 25.0745 105.058 23.9971 104.53 23.0142C104.002 22.0313 103.285 21.1621 102.421 20.4563C101.557 19.7504 100.562 19.2216 99.4932 18.9002C98.4246 18.5788 97.3031 18.471 96.1929 18.5829C95.0826 18.6949 94.0053 19.0245 93.0224 19.5528C92.0395 20.0811 91.1703 20.7979 90.4644 21.6621C89.0388 23.4075 88.365 25.6478 88.5911 27.8901L74.7894 29.3353C74.5568 29.3587 74.3311 29.4278 74.1253 29.5387C73.9194 29.6495 73.7375 29.7998 73.5898 29.981C73.4422 30.1622 73.3317 30.3708 73.2647 30.5948C73.1978 30.8188 73.1757 31.0538 73.1997 31.2863L74.3558 42.4144C74.3793 42.647 74.4484 42.8726 74.5592 43.0785C74.67 43.2843 74.8204 43.4663 75.0016 43.6139C75.1828 43.7616 75.3914 43.8721 75.6154 43.939C75.8393 44.006 76.0743 44.0281 76.3069 44.0041L120.79 39.3794C121.024 39.3561 121.25 39.2865 121.456 39.1746C121.662 39.0626 121.844 38.9107 121.991 38.7277C122.138 38.5446 122.246 38.3342 122.311 38.1086C122.375 37.883 122.394 37.6468 122.366 37.414Z" fill="white" stroke="#BABABA" stroke-linecap="round" stroke-linejoin="round"/>
<path d="M86.5967 105.252C87.07 100.963 88.9973 96.9662 92.0579 93.9251C95.1186 90.884 99.1281 88.9823 103.42 88.5365C107.711 88.0906 112.026 89.1274 115.646 91.4743C119.267 93.8213 121.975 97.337 123.319 101.437" stroke="#BABABA" stroke-linecap="round" stroke-linejoin="round"/>
<path d="M88.7067 72.157L81.7842 80.6837" stroke="#BABABA" stroke-linecap="round" stroke-linejoin="round"/>
<path d="M80.9893 72.9663L89.5016 79.8744" stroke="#BABABA" stroke-linecap="round" stroke-linejoin="round"/>
<path d="M122.178 68.6882L115.255 77.2005" stroke="#BABABA" stroke-linecap="round" stroke-linejoin="round"/>
<path d="M114.46 69.4832L122.973 76.4057" stroke="#BABABA" stroke-linecap="round" stroke-linejoin="round"/>
</g>
<defs>
<clipPath id="clip0_746_6128">
<rect width="211" height="193.658" fill="white" transform="translate(0 0.171143)"/>
</clipPath>
</defs>
</svg>
