<svg width="239" height="40" viewBox="0 0 239 40" fill="none" xmlns="http://www.w3.org/2000/svg">
<g clip-path="url(#clip0_746_5863)">
<path d="M26.768 39.5H24.9357C24.378 39.5 23.8203 39.2612 23.422 38.7837C23.1033 38.3857 22.8643 37.9082 22.8643 37.351V2.56939C22.8643 2.09184 23.1033 1.53469 23.422 1.21633C23.8203 0.738775 24.378 0.5 24.9357 0.5H26.768C27.3257 0.5 27.963 0.738775 28.2817 1.21633C28.6003 1.61429 28.7597 2.09184 28.7597 2.56939V37.4306C28.7597 37.9082 28.6003 38.4653 28.2817 38.7837C27.963 39.2612 27.4053 39.5 26.768 39.5Z" fill="#555555"/>
<path d="M11.233 39.5H9.40067C8.843 39.5 8.28533 39.2612 7.887 38.7837C7.56833 38.3857 7.32933 37.9082 7.32933 37.351V6.46939H2.07133C1.59333 6.46939 1.03567 6.23061 0.717 5.91224C0.239 5.51429 0 4.95714 0 4.4V2.56939C0 1.93265 0.239 1.37551 0.717 0.977551C1.11533 0.659184 1.59333 0.5 2.07133 0.5H18.403C18.881 0.5 19.4387 0.659184 19.7573 0.977551C20.2353 1.37551 20.4743 1.93265 20.4743 2.4898V4.32041C20.4743 4.87755 20.2353 5.43469 19.7573 5.83265C19.359 6.15102 18.881 6.3898 18.3233 6.3102H13.145V37.2714C13.145 37.749 12.9857 38.3061 12.667 38.7041C12.3483 39.2612 11.7907 39.5 11.233 39.5Z" fill="#555555"/>
<path d="M43.0996 39.5H35.4516C34.894 39.5 34.3363 39.2612 33.938 38.7837C33.6193 38.3857 33.3803 37.9082 33.3803 37.351V2.56939C33.3803 1.93265 33.6193 1.37551 34.0973 0.977551C34.4956 0.659184 34.9736 0.5 35.4516 0.5H41.4266C42.781 0.5 44.0556 0.579592 45.41 0.738776C46.4456 0.818367 47.561 1.13673 48.4373 1.69388C49.8713 2.4898 50.9866 3.76327 51.624 5.27551C52.341 6.86735 52.6596 8.53878 52.6596 10.2898C52.6596 13.1551 52.341 15.2245 51.7036 16.5776C51.385 17.2939 50.907 17.9306 50.3493 18.4878L50.0306 18.7265C51.0663 19.3633 51.863 20.2388 52.341 21.3531C53.1376 23.2633 53.4563 25.2531 53.3766 27.3225C53.3766 28.7551 53.297 30.1082 53.1376 31.5408C52.9783 32.9735 52.5003 34.3265 51.7036 35.5204C50.907 36.7939 49.8713 37.8286 48.517 38.4653C46.9236 39.1816 45.0116 39.5796 43.0996 39.5ZM39.3553 33.6102H42.8606C43.5776 33.6102 44.2946 33.5306 45.0116 33.3714C45.5693 33.2122 45.9676 32.8939 46.366 32.4959C46.844 31.9388 47.083 31.302 47.2423 30.6653C47.4813 29.4714 47.6406 28.2776 47.561 27.1633C47.561 26.2082 47.4813 25.3327 47.1626 24.4571C47.0033 23.9 46.605 23.4224 46.2066 23.0245C45.7286 22.6265 45.0913 22.3878 44.454 22.3082C43.5776 22.149 42.6216 22.0694 41.7453 22.0694H39.3553V33.6102ZM39.3553 16.1H41.825C42.542 16.1 43.259 16.0204 44.0556 15.9408C44.6133 15.8612 45.0913 15.702 45.4896 15.3837C45.9676 14.9857 46.2863 14.4286 46.4456 13.8714C46.7643 12.7571 46.9236 11.6429 46.844 10.5286C46.9236 9.73265 46.7643 8.93674 46.4456 8.14082C46.2066 7.66327 45.888 7.26531 45.4896 7.02653C45.0116 6.70816 44.454 6.54898 43.8963 6.54898C43.1793 6.46939 42.303 6.46939 41.4266 6.46939H39.3553V16.1Z" fill="#555555"/>
<path d="M67.7963 9.09592C67.7963 9.17551 67.7963 9.2551 67.7166 9.33469C67.637 9.41428 67.5573 9.41428 67.4776 9.41428H64.4503C64.3706 9.41428 64.291 9.41428 64.291 9.33469C64.2113 9.2551 64.2113 9.17551 64.2113 9.09592V0.897955C64.2113 0.818363 64.2113 0.738772 64.291 0.738772C64.3706 0.65918 64.4503 0.65918 64.4503 0.65918H64.8486C64.9283 0.65918 65.008 0.65918 65.0876 0.738772C65.1673 0.818363 65.1673 0.818363 65.1673 0.897955V8.37959H67.5573C67.637 8.37959 67.7166 8.37959 67.7166 8.45918C67.7963 8.53877 67.7963 8.61836 67.7963 8.69796V9.09592Z" fill="#555555"/>
<path d="M73.0543 9.09592C73.0543 9.17551 73.0543 9.2551 72.9747 9.33469C72.895 9.41428 72.8153 9.41428 72.8153 9.41428H69.549C69.4693 9.41428 69.3897 9.33469 69.3897 9.33469C69.31 9.2551 69.31 9.17551 69.31 9.09592V0.897955C69.31 0.818363 69.31 0.738772 69.3897 0.738772C69.4693 0.65918 69.549 0.65918 69.6287 0.65918H72.8153C72.895 0.65918 72.9747 0.65918 73.0543 0.738772C73.134 0.818363 73.134 0.897955 73.134 0.977547V1.29591C73.134 1.37551 73.134 1.4551 73.0543 1.53469C72.9747 1.61428 72.895 1.61428 72.8153 1.61428H70.266V4.4H72.3373C72.417 4.4 72.4967 4.4 72.5763 4.47959C72.656 4.55918 72.656 4.63877 72.656 4.71836V5.11632C72.656 5.19591 72.656 5.27551 72.5763 5.3551C72.4967 5.43469 72.417 5.43469 72.3373 5.43469H70.266V8.45918H72.8153C72.895 8.45918 72.9747 8.45918 72.9747 8.53877C73.0543 8.61836 73.0543 8.69796 73.0543 8.77755V9.09592Z" fill="#555555"/>
<path d="M75.285 9.33469C75.2053 9.33469 75.1256 9.33469 75.046 9.2551C74.9663 9.17551 74.9663 9.09591 74.9663 9.01632V0.897955C74.9663 0.818363 74.9663 0.738772 75.046 0.738772C75.1256 0.65918 75.2053 0.65918 75.285 0.65918H75.763C75.8426 0.65918 75.9223 0.65918 76.002 0.738772C76.0816 0.818363 76.0816 0.818363 76.0816 0.897955V9.01632C76.0816 9.09591 76.0816 9.17551 76.002 9.2551C75.9223 9.33469 75.8426 9.33469 75.763 9.33469H75.285Z" fill="#555555"/>
<path d="M80.065 0.659182C80.3836 0.659182 80.7023 0.659182 80.9413 0.738774C81.1803 0.738774 81.4193 0.818365 81.5786 0.897957C81.8973 1.05714 82.1363 1.29592 82.216 1.61428C82.3753 1.93265 82.455 2.33061 82.455 2.72857C82.455 3.20612 82.455 3.68367 82.2956 4.08163C82.216 4.24081 82.1363 4.32041 82.0566 4.47959C81.977 4.55918 81.8176 4.63877 81.738 4.71837C82.0566 4.79796 82.3753 5.03673 82.5346 5.3551C82.694 5.75306 82.7736 6.23061 82.7736 6.62857C82.7736 6.94694 82.7736 7.2653 82.694 7.58367C82.694 7.90204 82.5346 8.22041 82.3753 8.45918C82.216 8.69796 81.977 8.93673 81.738 9.09592C81.3396 9.2551 80.9413 9.33469 80.543 9.33469H78.7106C78.631 9.33469 78.5513 9.33469 78.4716 9.2551C78.392 9.17551 78.392 9.09592 78.392 9.01632V0.897957C78.392 0.818365 78.392 0.738774 78.4716 0.659182C78.5513 0.57959 78.631 0.57959 78.631 0.57959L80.065 0.659182ZM79.4276 4.32041H80.2243C80.3836 4.32041 80.6226 4.32041 80.782 4.32041C80.9413 4.32041 81.1006 4.24081 81.1803 4.16122C81.3396 4.08163 81.4193 3.92245 81.499 3.68367C81.5786 3.4449 81.5786 3.12653 81.5786 2.80816C81.5786 2.56939 81.5786 2.4102 81.499 2.17143C81.4193 2.01224 81.3396 1.93265 81.1803 1.85306C81.021 1.77347 80.8616 1.69388 80.7023 1.69388C80.543 1.69388 80.304 1.69388 80.1446 1.69388H79.4276V4.32041ZM79.4276 5.27551V8.37959H80.4633C80.6226 8.37959 80.8616 8.37959 81.021 8.3C81.1803 8.22041 81.3396 8.14081 81.4193 8.06122C81.5786 7.90204 81.6583 7.74285 81.6583 7.58367C81.738 7.2653 81.738 7.02653 81.738 6.70816C81.738 6.46939 81.738 6.23061 81.6583 5.99184C81.5786 5.83265 81.499 5.67347 81.3396 5.59388C81.1803 5.51428 81.021 5.43469 80.8616 5.3551C80.6226 5.3551 80.3836 5.27551 80.2243 5.27551H79.4276Z" fill="#555555"/>
<path d="M85.4823 2.17143L85.6417 4.79796V9.09592C85.6417 9.17551 85.6417 9.25511 85.562 9.3347C85.4823 9.41429 85.4027 9.41429 85.323 9.41429H84.9247C84.845 9.41429 84.7653 9.41429 84.7653 9.3347C84.6857 9.25511 84.6857 9.17551 84.6857 9.09592V0.897964C84.6857 0.818372 84.6857 0.738781 84.7653 0.738781C84.845 0.659189 84.9247 0.659189 84.9247 0.659189H85.6417C85.7213 0.659189 85.801 0.659189 85.801 0.738781C85.801 0.818372 85.8807 0.818372 85.8807 0.897964L88.191 7.82245L88.0317 5.35511V0.977556C88.0317 0.897964 88.0317 0.818372 88.1113 0.738781C88.191 0.659189 88.2707 0.579597 88.3503 0.659189H88.7487C88.8283 0.659189 88.908 0.659189 88.9877 0.738781C89.0673 0.818372 89.0673 0.897964 89.0673 0.977556V9.09592C89.0673 9.17551 89.0673 9.25511 88.9877 9.25511C88.908 9.3347 88.8283 9.3347 88.7487 9.3347H88.0317C87.952 9.3347 87.8723 9.3347 87.8723 9.25511C87.8723 9.17551 87.7927 9.09592 87.7927 9.09592L85.4823 2.17143Z" fill="#555555"/>
<path d="M91.8557 9.33469C91.776 9.33469 91.6964 9.33469 91.6964 9.2551C91.6167 9.17551 91.6167 9.09591 91.6167 9.01632V0.897955C91.6167 0.818363 91.6167 0.738772 91.6964 0.738772C91.776 0.65918 91.8557 0.65918 91.9354 0.65918H92.3337C92.4134 0.65918 92.493 0.65918 92.5727 0.738772C92.6524 0.818363 92.6524 0.818363 92.6524 0.897955V9.01632C92.6524 9.09591 92.6524 9.17551 92.5727 9.2551C92.493 9.33469 92.4134 9.33469 92.3337 9.33469H91.8557Z" fill="#555555"/>
<path d="M94.644 9.33469C94.5643 9.33469 94.4846 9.33469 94.405 9.2551C94.405 9.17551 94.3253 9.09591 94.3253 9.01632V8.45918C94.3253 8.37959 94.3253 8.3 94.405 8.2204C94.405 8.14081 94.4846 8.06122 94.4846 7.98163L97.273 1.69387H94.644C94.5643 1.69387 94.4846 1.69387 94.4846 1.61428C94.405 1.53469 94.405 1.4551 94.405 1.37551V0.977547C94.405 0.897955 94.405 0.818363 94.4846 0.738772C94.5643 0.65918 94.644 0.65918 94.644 0.65918H97.99C98.0696 0.65918 98.1493 0.65918 98.229 0.738772C98.3087 0.818363 98.3087 0.897955 98.3087 0.897955V1.53469C98.3087 1.61428 98.3087 1.61428 98.3087 1.69387L98.229 1.77347L95.361 8.3H98.229C98.3087 8.3 98.3883 8.3 98.468 8.37959C98.5476 8.45918 98.5476 8.53877 98.5476 8.61836V9.01632C98.5476 9.09591 98.5476 9.17551 98.468 9.2551C98.3883 9.33469 98.3087 9.33469 98.229 9.33469H94.644Z" fill="#555555"/>
<path d="M103.885 9.33469C103.806 9.33469 103.726 9.33469 103.646 9.2551C103.567 9.17551 103.567 9.09591 103.567 9.01632V0.897955C103.567 0.818363 103.567 0.738772 103.646 0.738772C103.726 0.65918 103.806 0.65918 103.885 0.65918H104.284C104.363 0.65918 104.443 0.65918 104.523 0.738772C104.602 0.818363 104.602 0.818363 104.602 0.897955V9.01632C104.602 9.09591 104.602 9.17551 104.523 9.2551C104.443 9.33469 104.363 9.33469 104.284 9.33469H103.885Z" fill="#555555"/>
<path d="M107.869 2.17142L108.028 4.79796V9.09592C108.028 9.17551 108.028 9.2551 107.948 9.33469C107.869 9.41428 107.789 9.41428 107.709 9.41428H107.311C107.231 9.41428 107.152 9.41428 107.072 9.33469C106.992 9.2551 106.992 9.17551 106.992 9.09592V0.897955C106.992 0.818363 106.992 0.738772 107.072 0.738772C107.152 0.65918 107.231 0.65918 107.311 0.65918H108.028C108.108 0.65918 108.187 0.65918 108.187 0.738772C108.187 0.818363 108.267 0.897955 108.267 0.897955L110.577 7.82245L110.418 5.3551V0.977547C110.418 0.897955 110.418 0.818363 110.498 0.738772C110.577 0.65918 110.657 0.65918 110.737 0.65918H111.135C111.215 0.65918 111.294 0.65918 111.374 0.738772C111.454 0.818363 111.454 0.897955 111.454 0.977547V9.09592C111.454 9.17551 111.454 9.2551 111.374 9.2551C111.294 9.33469 111.215 9.33469 111.135 9.33469H110.418C110.338 9.33469 110.259 9.33469 110.259 9.2551C110.179 9.17551 110.179 9.09592 110.179 9.09592L107.869 2.17142Z" fill="#555555"/>
<path d="M117.19 5.03673C117.19 5.11632 117.19 5.19591 117.11 5.27551C117.03 5.3551 116.951 5.3551 116.951 5.3551H114.879V9.09592C114.879 9.17551 114.879 9.2551 114.8 9.33469C114.72 9.41428 114.64 9.41428 114.561 9.41428H114.162C114.083 9.41428 114.003 9.41428 114.003 9.33469C113.923 9.2551 113.923 9.17551 113.923 9.09592V0.897955C113.923 0.818363 113.923 0.738772 114.003 0.738772C114.083 0.65918 114.162 0.65918 114.162 0.65918H117.349C117.429 0.65918 117.508 0.65918 117.588 0.738772C117.668 0.818363 117.668 0.897955 117.668 0.977547V1.29591C117.668 1.37551 117.668 1.4551 117.588 1.53469C117.508 1.61428 117.429 1.61428 117.349 1.61428H114.879V4.4H116.951C117.03 4.4 117.11 4.4 117.11 4.47959C117.19 4.55918 117.19 4.63877 117.19 4.71836V5.03673Z" fill="#555555"/>
<path d="M121.014 9.49388C120.615 9.49388 120.217 9.41428 119.898 9.2551C119.659 9.09592 119.42 8.93673 119.261 8.69796C119.102 8.45918 119.022 8.22041 118.942 7.98163C118.863 7.74285 118.863 7.58367 118.863 7.3449C118.783 6.54898 118.783 5.75306 118.783 5.03673C118.783 4.32041 118.783 3.52449 118.863 2.72857C118.863 2.48979 118.863 2.33061 118.942 2.09183C119.022 1.85306 119.102 1.61428 119.261 1.37551C119.42 1.13673 119.659 0.977549 119.898 0.818365C120.615 0.499998 121.412 0.499998 122.129 0.818365C122.368 0.977549 122.607 1.13673 122.766 1.37551C122.926 1.61428 123.005 1.85306 123.085 2.09183C123.165 2.33061 123.165 2.48979 123.165 2.72857C123.244 3.52449 123.244 4.32041 123.244 5.03673C123.244 5.75306 123.244 6.54898 123.165 7.3449C123.165 7.58367 123.165 7.74285 123.085 7.98163C123.005 8.22041 122.926 8.45918 122.766 8.69796C122.607 8.93673 122.368 9.09592 122.129 9.2551C121.81 9.41428 121.412 9.49388 121.014 9.49388ZM121.014 1.53469C120.775 1.53469 120.615 1.53469 120.456 1.69388C120.297 1.77347 120.217 1.93265 120.137 2.01224C120.058 2.17143 119.978 2.33061 119.978 2.48979C119.978 2.64898 119.898 2.88775 119.898 3.04694C119.819 3.76326 119.819 4.4 119.819 4.95714C119.819 5.51428 119.819 6.23061 119.898 6.86735C119.898 7.02653 119.898 7.2653 119.978 7.42449C119.978 7.58367 120.058 7.74286 120.137 7.90204C120.217 8.06122 120.376 8.14081 120.456 8.22041C120.615 8.3 120.854 8.37959 121.014 8.37959C121.173 8.37959 121.412 8.37959 121.571 8.22041C121.731 8.14081 121.81 7.98163 121.89 7.90204C121.97 7.74286 122.049 7.58367 122.049 7.42449C122.049 7.2653 122.129 7.02653 122.129 6.86735C122.129 6.15102 122.209 5.51428 122.209 4.95714C122.209 4.4 122.209 3.68367 122.129 3.04694C122.129 2.88775 122.129 2.64898 122.049 2.48979C122.049 2.33061 121.97 2.17143 121.89 2.01224C121.81 1.85306 121.731 1.77347 121.571 1.69388C121.412 1.53469 121.253 1.53469 121.014 1.53469Z" fill="#555555"/>
<path d="M129.458 9.09591C129.458 9.1755 129.458 9.2551 129.458 9.2551C129.379 9.33469 129.299 9.33469 129.219 9.33469H128.741C128.662 9.33469 128.582 9.33469 128.582 9.2551C128.502 9.1755 128.502 9.09591 128.423 9.01632L127.307 5.2755H126.192V9.09591C126.192 9.1755 126.192 9.2551 126.112 9.2551C126.033 9.33469 125.953 9.33469 125.873 9.33469H125.475C125.395 9.33469 125.316 9.33469 125.236 9.2551C125.156 9.1755 125.156 9.09591 125.156 9.09591V0.977545C125.156 0.897953 125.156 0.818361 125.236 0.818361C125.316 0.73877 125.395 0.73877 125.395 0.73877H126.909C127.307 0.73877 127.706 0.73877 128.104 0.897953C128.423 0.977545 128.741 1.21632 128.901 1.4551C129.06 1.69387 129.14 1.93265 129.219 2.17142C129.299 2.48979 129.299 2.80816 129.299 3.12652C129.299 3.60408 129.219 4.08163 129.06 4.47959C128.901 4.79795 128.582 5.03673 128.184 5.19591L129.458 9.09591ZM126.192 4.3204H126.989C127.148 4.3204 127.387 4.3204 127.546 4.3204C127.706 4.3204 127.865 4.24081 127.945 4.16122C128.024 4.08163 128.104 4.08163 128.104 4.00203C128.184 3.92244 128.184 3.84285 128.263 3.76326C128.263 3.68367 128.343 3.60408 128.343 3.44489C128.343 3.28571 128.343 3.12652 128.343 3.04693C128.343 2.80816 128.343 2.48979 128.263 2.25101C128.184 2.09183 128.104 1.93265 127.945 1.85306C127.865 1.85306 127.785 1.77346 127.785 1.77346C127.706 1.77346 127.626 1.77346 127.467 1.77346H126.192V4.3204Z" fill="#555555"/>
<path d="M132.326 2.09183L132.406 5.91224V9.09592C132.406 9.17551 132.406 9.2551 132.326 9.33469C132.247 9.41428 132.167 9.41428 132.087 9.41428H131.689C131.609 9.41428 131.53 9.41428 131.53 9.33469C131.45 9.2551 131.45 9.17551 131.45 9.09592V0.897955C131.45 0.818363 131.45 0.738772 131.53 0.738772C131.609 0.65918 131.689 0.65918 131.769 0.65918H132.565C132.645 0.65918 132.725 0.65918 132.725 0.738772C132.804 0.818363 132.804 0.897955 132.804 0.977547L133.76 4.87755L133.999 6.23061H134.079L134.318 4.87755L135.194 0.977547C135.194 0.818363 135.354 0.738772 135.513 0.738772H136.31C136.389 0.738772 136.469 0.738772 136.549 0.818363C136.628 0.897955 136.628 0.897955 136.628 0.977547V9.09592C136.628 9.17551 136.628 9.2551 136.549 9.33469C136.469 9.41428 136.389 9.41428 136.31 9.41428H135.911C135.832 9.41428 135.752 9.41428 135.752 9.33469C135.672 9.2551 135.672 9.17551 135.672 9.09592V5.91224L135.832 2.09183H135.752L134.557 7.50408C134.557 7.58367 134.557 7.66326 134.477 7.74285C134.398 7.82245 134.318 7.82245 134.318 7.82245H133.92C133.84 7.82245 133.76 7.82245 133.76 7.74285C133.681 7.66326 133.681 7.58367 133.681 7.50408L132.326 2.09183Z" fill="#555555"/>
<path d="M140.851 0.65918C141.01 0.65918 141.09 0.738772 141.169 0.977547L142.763 9.09591C142.763 9.17551 142.763 9.2551 142.683 9.2551C142.603 9.33469 142.524 9.33469 142.524 9.33469H142.046C141.886 9.33469 141.807 9.2551 141.727 9.09591L141.408 7.66326H139.735L139.496 9.09591C139.496 9.2551 139.337 9.33469 139.178 9.33469H138.7C138.62 9.33469 138.461 9.2551 138.461 9.17551V9.09591L140.134 0.977547C140.134 0.897955 140.134 0.818363 140.213 0.818363C140.293 0.738772 140.373 0.738772 140.373 0.738772L140.851 0.65918ZM141.249 6.62857L140.771 3.60408L140.612 1.93265H140.532L140.373 3.60408L139.895 6.62857H141.249Z" fill="#555555"/>
<path d="M147.861 1.29591C147.861 1.37551 147.861 1.4551 147.782 1.53469C147.702 1.61428 147.622 1.61428 147.543 1.61428H146.188V9.01632C146.188 9.09591 146.188 9.17551 146.109 9.2551C146.029 9.33469 145.949 9.33469 145.87 9.33469H145.471C145.392 9.33469 145.312 9.33469 145.232 9.2551C145.153 9.17551 145.153 9.09591 145.153 9.01632V1.61428H143.719C143.639 1.61428 143.559 1.61428 143.559 1.53469C143.48 1.4551 143.48 1.37551 143.48 1.37551V0.977547C143.48 0.818363 143.639 0.65918 143.798 0.65918H147.622C147.702 0.65918 147.782 0.65918 147.861 0.738772C147.941 0.818363 147.941 0.897955 147.941 0.977547V1.29591H147.861Z" fill="#555555"/>
<path d="M149.853 9.33469C149.773 9.33469 149.694 9.33469 149.694 9.2551C149.614 9.17551 149.614 9.09591 149.614 9.01632V0.897955C149.614 0.818363 149.614 0.738772 149.694 0.738772C149.773 0.65918 149.853 0.65918 149.853 0.65918H150.251C150.331 0.65918 150.411 0.65918 150.49 0.738772C150.57 0.818363 150.57 0.818363 150.57 0.897955V9.01632C150.57 9.09591 150.57 9.17551 150.49 9.2551C150.411 9.33469 150.331 9.33469 150.251 9.33469H149.853Z" fill="#555555"/>
<path d="M154.872 9.49388C154.474 9.49388 154.155 9.41428 153.836 9.2551C153.597 9.09592 153.358 8.93673 153.199 8.69796C153.04 8.45918 152.96 8.22041 152.88 7.98163C152.801 7.74285 152.801 7.58367 152.801 7.3449C152.721 6.54898 152.721 5.75306 152.721 5.03673C152.721 4.32041 152.721 3.52449 152.801 2.72857C152.801 2.48979 152.801 2.33061 152.88 2.09183C152.96 1.53469 153.279 1.05714 153.836 0.818365C154.553 0.499998 155.35 0.499998 156.067 0.818365C156.306 0.977549 156.545 1.13673 156.704 1.37551C156.864 1.61428 156.943 1.85306 157.023 2.09183C157.103 2.33061 157.103 2.48979 157.103 2.72857C157.182 3.52449 157.182 4.32041 157.182 5.03673C157.182 5.75306 157.182 6.54898 157.103 7.3449C157.103 7.58367 157.103 7.74285 157.023 7.98163C156.943 8.22041 156.864 8.45918 156.704 8.69796C156.545 8.93673 156.306 9.09592 156.067 9.2551C155.669 9.41428 155.27 9.49388 154.872 9.49388ZM154.872 1.53469C154.713 1.53469 154.474 1.53469 154.314 1.69388C154.155 1.77347 154.075 1.93265 153.996 2.01224C153.916 2.17143 153.836 2.33061 153.836 2.48979C153.836 2.64898 153.757 2.88775 153.757 3.04694C153.757 3.76326 153.677 4.4 153.677 4.95714C153.677 5.59388 153.677 6.23061 153.757 6.86735C153.757 7.02653 153.757 7.2653 153.836 7.42449C153.836 7.58367 153.916 7.74286 153.996 7.90204C154.155 8.22041 154.553 8.45918 154.872 8.37959C155.031 8.37959 155.27 8.37959 155.43 8.22041C155.589 8.14081 155.669 7.98163 155.748 7.90204C155.828 7.74286 155.908 7.58367 155.908 7.42449C155.908 7.2653 155.987 7.02653 155.987 6.86735C155.987 6.15102 155.987 5.51428 156.067 4.95714C156.147 4.4 156.067 3.68367 155.987 3.04694C155.987 2.88775 155.987 2.64898 155.908 2.48979C155.908 2.33061 155.828 2.17143 155.748 2.01224C155.669 1.85306 155.589 1.77347 155.43 1.69388C155.27 1.53469 155.111 1.53469 154.872 1.53469Z" fill="#555555"/>
<path d="M159.811 2.17142L159.971 4.79796V9.09592C159.971 9.17551 159.971 9.2551 159.891 9.33469C159.811 9.41428 159.732 9.41428 159.652 9.41428H159.254C159.174 9.41428 159.094 9.41428 159.094 9.33469C159.015 9.2551 159.015 9.17551 159.015 9.09592V0.897955C159.015 0.818363 159.015 0.738772 159.094 0.738772C159.174 0.65918 159.254 0.65918 159.254 0.65918H159.971C160.05 0.65918 160.13 0.65918 160.13 0.738772C160.13 0.818363 160.21 0.818363 160.21 0.897955L162.52 7.82245V5.3551V0.977547C162.52 0.897955 162.52 0.818363 162.52 0.738772C162.6 0.65918 162.679 0.65918 162.759 0.65918H163.157C163.237 0.65918 163.317 0.65918 163.396 0.738772C163.476 0.818363 163.476 0.897955 163.476 0.977547V9.09592C163.476 9.17551 163.476 9.2551 163.396 9.2551C163.317 9.33469 163.237 9.33469 163.157 9.33469H162.44C162.361 9.33469 162.281 9.33469 162.281 9.2551C162.201 9.17551 162.201 9.09592 162.201 9.09592L159.811 2.17142Z" fill="#555555"/>
<path d="M172.956 2.88774C172.956 3.04692 172.877 3.12651 172.717 3.12651H172.239C172.16 3.12651 172.08 3.12651 172 3.04692C171.921 2.96733 171.921 2.88774 171.921 2.88774V2.72855C171.921 2.56937 171.921 2.41019 171.841 2.33059C171.841 2.17141 171.761 2.09182 171.682 1.93264C171.602 1.85304 171.522 1.69386 171.363 1.69386C171.204 1.61427 171.044 1.61427 170.885 1.61427C170.646 1.61427 170.487 1.61427 170.327 1.69386C170.168 1.77345 170.088 1.85304 170.009 2.01223C169.929 2.17141 169.849 2.33059 169.849 2.48978C169.849 2.64896 169.77 2.88774 169.77 3.04692C169.77 3.44488 169.69 3.76325 169.69 4.08161C169.69 4.39998 169.69 4.71835 169.69 5.03672V5.99182C169.69 6.31019 169.69 6.62855 169.77 7.02651C169.77 7.1857 169.77 7.42447 169.849 7.58366C169.849 7.74284 169.929 7.90202 170.009 8.06121C170.088 8.22039 170.248 8.29998 170.327 8.45917C170.487 8.53876 170.726 8.61835 170.885 8.61835C171.044 8.61835 171.204 8.53876 171.363 8.45917C171.522 8.37957 171.602 8.29998 171.682 8.1408C171.761 7.98162 171.841 7.82243 171.841 7.66325C171.841 7.50406 171.921 7.26529 171.921 7.1061V6.54896C171.921 6.46937 171.921 6.38978 172 6.31019C172.08 6.23059 172.16 6.23059 172.239 6.23059H172.638C172.797 6.23059 172.877 6.31019 172.877 6.46937V7.34488C172.877 7.58366 172.877 7.74284 172.797 7.98161C172.717 8.22039 172.638 8.45917 172.478 8.61835C172.319 8.85712 172.08 9.01631 171.841 9.17549C171.522 9.33468 171.124 9.41427 170.726 9.41427C170.327 9.49386 169.929 9.41427 169.61 9.17549C169.371 9.01631 169.132 8.85712 168.973 8.61835C168.814 8.37957 168.734 8.1408 168.654 7.90202C168.575 7.74284 168.575 7.50406 168.575 7.34488C168.575 6.94692 168.495 6.54896 168.495 6.151C168.495 5.75304 168.495 5.35508 168.495 4.95713V3.84284C168.495 3.44488 168.495 3.04692 168.575 2.64896C168.575 2.41019 168.654 2.251 168.654 2.01223C168.734 1.77345 168.814 1.53468 168.973 1.2959C169.132 1.05712 169.371 0.897941 169.61 0.738757C170.009 0.579574 170.407 0.499982 170.805 0.499982C171.443 0.42039 172 0.738757 172.399 1.21631C172.558 1.37549 172.638 1.61427 172.717 1.85304C172.717 2.01223 172.797 2.251 172.797 2.41019L172.956 2.88774Z" fill="#555555"/>
<path d="M178.533 9.09591C178.533 9.17551 178.533 9.2551 178.453 9.2551C178.374 9.33469 178.294 9.33469 178.214 9.33469H174.948C174.868 9.33469 174.789 9.33469 174.709 9.2551C174.629 9.17551 174.629 9.09591 174.629 9.01632V0.897955C174.629 0.818363 174.629 0.738772 174.709 0.738772C174.789 0.65918 174.868 0.65918 174.948 0.65918H178.135C178.214 0.65918 178.294 0.65918 178.374 0.738772C178.453 0.818363 178.453 0.897955 178.453 0.977547V1.29591C178.453 1.37551 178.453 1.4551 178.374 1.53469C178.294 1.61428 178.214 1.61428 178.135 1.61428H175.665V4.4H177.816C177.896 4.4 177.975 4.4 177.975 4.47959C178.055 4.55918 178.055 4.63877 178.055 4.71836V5.11632C178.055 5.19591 178.055 5.27551 177.975 5.3551C177.896 5.43469 177.816 5.43469 177.816 5.43469H175.665V8.45918H178.214C178.294 8.45918 178.374 8.45918 178.453 8.53877C178.533 8.61836 178.533 8.69795 178.533 8.77755V9.09591Z" fill="#555555"/>
<path d="M181.082 2.17142L181.242 4.79796V9.09592C181.242 9.17551 181.242 9.2551 181.162 9.33469C181.082 9.41428 181.003 9.41428 180.923 9.41428H180.525C180.445 9.41428 180.365 9.41428 180.365 9.33469C180.286 9.2551 180.286 9.17551 180.286 9.09592V0.897955C180.286 0.818363 180.286 0.738772 180.365 0.738772C180.445 0.65918 180.525 0.65918 180.525 0.65918H181.242C181.321 0.65918 181.401 0.65918 181.401 0.738772C181.401 0.818363 181.481 0.818363 181.481 0.897955L183.791 7.82245L183.632 5.3551V0.977547C183.632 0.897955 183.632 0.818363 183.711 0.738772C183.791 0.65918 183.871 0.65918 183.95 0.65918H184.349C184.428 0.65918 184.508 0.65918 184.508 0.738772C184.588 0.818363 184.588 0.897955 184.588 0.977547V9.09592C184.588 9.17551 184.588 9.2551 184.508 9.2551C184.428 9.33469 184.349 9.33469 184.349 9.33469H183.632C183.552 9.33469 183.472 9.33469 183.472 9.2551C183.393 9.17551 183.393 9.09592 183.393 9.09592L181.082 2.17142Z" fill="#555555"/>
<path d="M190.722 1.29591C190.722 1.37551 190.722 1.4551 190.642 1.53469C190.563 1.61428 190.483 1.61428 190.403 1.61428H189.049V9.01632C189.049 9.09591 189.049 9.17551 188.969 9.2551C188.89 9.33469 188.81 9.33469 188.73 9.33469H188.332C188.252 9.33469 188.173 9.33469 188.173 9.2551C188.093 9.17551 188.093 9.09591 188.093 9.01632V1.61428H186.659C186.579 1.61428 186.5 1.61428 186.5 1.53469C186.42 1.4551 186.42 1.37551 186.42 1.29591V0.977547C186.42 0.897955 186.42 0.818363 186.5 0.738772C186.579 0.65918 186.659 0.65918 186.659 0.65918H190.483C190.563 0.65918 190.642 0.65918 190.722 0.738772C190.802 0.818363 190.802 0.897955 190.802 0.977547L190.722 1.29591Z" fill="#555555"/>
<path d="M196.617 9.09591C196.617 9.1755 196.617 9.2551 196.617 9.2551C196.617 9.33469 196.538 9.33469 196.378 9.33469H195.9C195.821 9.33469 195.741 9.33469 195.741 9.2551C195.661 9.1755 195.661 9.09591 195.661 9.01632L194.387 5.2755H193.271V9.09591C193.271 9.1755 193.271 9.2551 193.192 9.2551C193.112 9.33469 193.032 9.33469 192.953 9.33469H192.554C192.475 9.33469 192.395 9.33469 192.315 9.2551C192.236 9.1755 192.236 9.09591 192.236 9.09591V0.977545C192.236 0.897953 192.236 0.818361 192.315 0.818361C192.395 0.73877 192.395 0.73877 192.475 0.73877H193.988C194.387 0.73877 194.785 0.73877 195.183 0.897953C195.502 0.977545 195.821 1.13673 195.98 1.4551C196.139 1.69387 196.219 1.93265 196.299 2.17142C196.378 2.48979 196.378 2.80816 196.378 3.12652C196.378 3.60408 196.299 4.08163 196.139 4.47959C195.98 4.79795 195.661 5.03673 195.263 5.19591L196.617 9.09591ZM193.271 4.3204H194.068C194.227 4.3204 194.466 4.3204 194.626 4.3204C194.785 4.3204 194.944 4.24081 195.024 4.16122C195.104 4.08163 195.183 4.08163 195.183 4.00203C195.263 3.92244 195.263 3.84285 195.263 3.76326C195.263 3.68367 195.343 3.60408 195.343 3.44489C195.343 3.28571 195.343 3.12652 195.343 3.04693C195.343 2.80816 195.343 2.48979 195.263 2.25101C195.183 2.09183 195.104 1.93265 194.944 1.85306C194.865 1.85306 194.785 1.77346 194.785 1.77346C194.705 1.77346 194.626 1.77346 194.466 1.77346H193.112L193.271 4.3204Z" fill="#555555"/>
<path d="M202.274 9.09592C202.274 9.17551 202.274 9.2551 202.194 9.33469C202.114 9.41428 202.035 9.41428 202.035 9.41428H198.768C198.689 9.41428 198.609 9.41428 198.609 9.33469C198.529 9.2551 198.529 9.17551 198.529 9.09592V0.897955C198.529 0.818363 198.529 0.738772 198.609 0.738772C198.689 0.65918 198.768 0.65918 198.768 0.65918H201.955C202.035 0.65918 202.114 0.65918 202.194 0.738772C202.274 0.818363 202.274 0.897955 202.274 0.977547V1.29591C202.274 1.37551 202.274 1.4551 202.194 1.53469C202.114 1.61428 202.035 1.61428 201.955 1.61428H199.485V4.4H201.636C201.716 4.4 201.796 4.4 201.875 4.47959C201.955 4.55918 201.955 4.63877 201.955 4.71836V5.11632C201.955 5.19591 201.955 5.27551 201.875 5.3551C201.796 5.43469 201.716 5.43469 201.636 5.43469H199.485V8.45918H202.035C202.114 8.45918 202.194 8.45918 202.274 8.53877C202.353 8.61836 202.353 8.69796 202.353 8.77755L202.274 9.09592Z" fill="#555555"/>
<path d="M67.4777 19.9999C67.4777 20.0795 67.4777 20.159 67.398 20.2386C67.3183 20.3182 67.2387 20.3182 67.2387 20.3182H65.0877V24.059C65.0877 24.1386 65.0877 24.2182 65.008 24.2978C64.9283 24.3774 64.8487 24.3774 64.769 24.3774H64.3707C64.291 24.3774 64.2113 24.3774 64.1317 24.2978C64.052 24.2182 64.052 24.1386 64.052 24.059V15.8611C64.052 15.7815 64.052 15.7019 64.1317 15.7019C64.2113 15.6223 64.291 15.6223 64.3707 15.6223H67.5573C67.637 15.6223 67.7167 15.6223 67.7167 15.7019C67.7963 15.7815 67.7963 15.8611 67.7963 15.9407V16.3386C67.7963 16.4182 67.7963 16.4978 67.7167 16.4978C67.637 16.5774 67.5573 16.5774 67.5573 16.5774H65.0877V19.2835H67.159C67.2387 19.2835 67.3183 19.2835 67.398 19.3631C67.4777 19.4427 67.4777 19.5223 67.4777 19.6019V19.9999Z" fill="#555555"/>
<path d="M71.3813 24.457C70.983 24.457 70.5846 24.3774 70.266 24.2182C70.027 24.0591 69.788 23.8999 69.6286 23.6611C69.4693 23.4223 69.3896 23.1835 69.31 22.9448C69.2303 22.706 69.2303 22.5468 69.2303 22.308C69.1506 21.5121 69.1506 20.7162 69.1506 19.9999C69.1506 19.2835 69.1506 18.4876 69.2303 17.6917C69.2303 17.4529 69.31 17.2937 69.31 17.055C69.3896 16.8162 69.4693 16.5774 69.6286 16.3386C69.788 16.0999 70.027 15.9407 70.266 15.7815C70.983 15.4631 71.7796 15.4631 72.4966 15.7815C72.7356 15.9407 72.9746 16.0999 73.134 16.3386C73.2933 16.5774 73.373 16.8162 73.4526 17.055C73.5323 17.2937 73.5323 17.4529 73.5323 17.6917C73.612 18.4876 73.612 19.2835 73.612 19.9999C73.612 20.7162 73.612 21.5121 73.5323 22.308C73.5323 22.5468 73.5323 22.706 73.4526 22.9448C73.373 23.1835 73.2933 23.4223 73.134 23.6611C72.9746 23.8999 72.7356 24.0591 72.4966 24.2182C72.178 24.3774 71.7796 24.457 71.3813 24.457ZM71.3813 16.4978C71.222 16.4978 70.983 16.4978 70.8236 16.657C70.6643 16.7366 70.5846 16.8958 70.505 16.9754C70.4253 17.1346 70.3456 17.2937 70.3456 17.4529C70.3456 17.6121 70.266 17.8509 70.266 18.0101C70.266 18.6468 70.1863 19.3631 70.1863 19.9203C70.1863 20.4774 70.1863 21.1937 70.266 21.8305C70.266 21.9897 70.266 22.2284 70.3456 22.3876C70.3456 22.5468 70.4253 22.706 70.505 22.8652C70.5846 23.0244 70.6643 23.1039 70.8236 23.1835C71.1423 23.3427 71.6203 23.3427 71.939 23.1835C72.0983 23.1039 72.178 22.9448 72.2576 22.8652C72.3373 22.706 72.417 22.5468 72.417 22.3876C72.417 22.2284 72.4966 21.9897 72.4966 21.8305C72.4966 21.1937 72.4966 20.4774 72.5763 19.9203C72.656 19.2835 72.5763 18.6468 72.5763 17.9305C72.5763 17.7713 72.5763 17.5325 72.4966 17.3733C72.4966 17.2142 72.417 17.055 72.3373 16.8958C72.2576 16.7366 72.178 16.657 72.0186 16.5774C71.7796 16.4978 71.6203 16.4182 71.3813 16.4978Z" fill="#555555"/>
<path d="M79.826 24.059C79.826 24.1386 79.826 24.2182 79.826 24.2182C79.7463 24.2978 79.6667 24.2978 79.587 24.2978H79.109C79.0293 24.2978 78.9496 24.2978 78.9496 24.2182C78.87 24.1386 78.87 24.059 78.7903 23.9795L77.5953 20.159H76.48V23.9795C76.48 24.059 76.48 24.1386 76.4003 24.1386C76.3207 24.2182 76.241 24.2182 76.1613 24.2182H75.763C75.6833 24.2182 75.6037 24.2182 75.6037 24.1386C75.524 24.059 75.524 23.9795 75.524 23.9795V15.8611C75.524 15.7815 75.524 15.7019 75.6037 15.6223C75.6833 15.6223 75.763 15.6223 75.8426 15.6223H77.3563C77.7546 15.6223 78.153 15.6223 78.5513 15.7019C78.87 15.7815 79.1886 15.9407 79.348 16.259C79.5073 16.4978 79.587 16.7366 79.6667 16.9754C79.7463 17.2937 79.7463 17.6121 79.7463 17.9305C79.7463 18.408 79.6667 18.8856 79.5073 19.2835C79.348 19.6019 79.0293 19.8407 78.631 19.9999L79.826 24.059ZM76.5596 19.2835H77.3563C77.5156 19.2835 77.7547 19.2835 77.914 19.2835C78.0733 19.2835 78.2327 19.2039 78.3123 19.1244C78.392 19.0448 78.4717 19.0448 78.4717 18.9652C78.5513 18.8856 78.5513 18.806 78.5513 18.7264C78.5513 18.6468 78.631 18.5672 78.631 18.408V18.0101C78.631 17.7713 78.631 17.4529 78.5513 17.2142C78.4716 17.055 78.392 16.8958 78.2326 16.8162L78.0733 16.7366C77.9937 16.7366 77.914 16.7366 77.7546 16.7366H76.48V19.2835H76.5596Z" fill="#555555"/>
<path d="M88.8283 21.9101C88.908 22.6264 88.669 23.2631 88.2706 23.8203C87.8723 24.2182 87.235 24.457 86.6773 24.457C86.279 24.457 85.9603 24.3774 85.6416 24.2182C85.4026 24.0591 85.1636 23.8999 85.0043 23.6611C84.845 23.4223 84.6856 23.104 84.606 22.8652C84.5263 22.5468 84.5263 22.2284 84.5263 21.8305V21.6713C84.5263 21.5917 84.5263 21.5121 84.606 21.5121C84.6856 21.4325 84.7653 21.4325 84.845 21.4325H85.2433C85.323 21.4325 85.4026 21.4325 85.4026 21.5121C85.4823 21.5917 85.4823 21.6713 85.4823 21.6713V21.8305C85.4823 22.0693 85.4823 22.3876 85.562 22.6264C85.6416 22.7856 85.7213 23.0244 85.801 23.1039C85.8806 23.2631 86.04 23.3427 86.1993 23.3427C86.3586 23.4223 86.518 23.4223 86.6773 23.4223C86.996 23.4223 87.3146 23.3427 87.5536 23.1039C87.7926 22.7856 87.952 22.3876 87.8723 21.9897C87.8723 21.6713 87.7926 21.4325 87.6333 21.1937C87.474 20.955 87.235 20.7162 86.996 20.557C86.757 20.3978 86.518 20.1591 86.1993 19.9999C85.8806 19.8407 85.6416 19.6019 85.4026 19.4427C85.1636 19.2039 84.9246 18.9652 84.7653 18.6468C84.5263 18.0897 84.4466 17.3733 84.6856 16.8162C84.7653 16.5774 84.9246 16.3386 85.084 16.1795C85.2433 16.0203 85.4823 15.8611 85.7213 15.7019C86.04 15.6223 86.279 15.5427 86.5976 15.5427C86.9163 15.5427 87.1553 15.6223 87.474 15.7019C87.713 15.7815 87.952 15.9407 88.1113 16.1795C88.2706 16.3386 88.3503 16.5774 88.43 16.8162C88.5096 17.055 88.5893 17.2937 88.5893 17.5325V17.6121C88.5893 17.6917 88.5893 17.7713 88.5096 17.7713C88.43 17.8509 88.3503 17.8509 88.2706 17.8509H87.8723C87.7926 17.8509 87.713 17.8509 87.713 17.7713C87.6333 17.6917 87.6333 17.6917 87.6333 17.6121C87.6333 17.3733 87.5536 17.055 87.3943 16.8958C87.235 16.657 86.9163 16.5774 86.6773 16.5774C86.518 16.5774 86.3586 16.5774 86.1993 16.657C85.9603 16.7366 85.7213 16.9754 85.7213 17.2142C85.7213 17.3733 85.6416 17.4529 85.6416 17.6121C85.6416 17.9305 85.7213 18.1693 85.8806 18.408C86.04 18.6468 86.279 18.8856 86.518 19.0448C86.757 19.2039 86.996 19.4427 87.3146 19.6019C87.6333 19.7611 87.8723 19.9999 88.1113 20.1591C88.3503 20.3978 88.5893 20.6366 88.7486 20.955C88.669 21.2733 88.8283 21.5917 88.8283 21.9101Z" fill="#555555"/>
<path d="M94.4847 17.8509C94.4847 17.9305 94.4847 18.0101 94.405 18.0101C94.3253 18.0897 94.2457 18.0897 94.166 18.0897H93.7677C93.6083 18.0897 93.5287 18.0101 93.5287 17.8509V17.6121C93.5287 17.4529 93.5287 17.2937 93.449 17.1346C93.449 16.9754 93.3693 16.8958 93.2897 16.7366C93.21 16.5774 93.1303 16.4978 92.971 16.4978C92.8117 16.4182 92.6523 16.4182 92.493 16.4182C92.254 16.4182 92.0947 16.4182 91.9353 16.4978C91.776 16.5774 91.6963 16.657 91.6167 16.8162C91.537 16.9754 91.4573 17.1346 91.4573 17.2937C91.4573 17.4529 91.3777 17.6917 91.3777 17.8509C91.3777 18.2488 91.298 18.5672 91.298 18.8856C91.298 19.204 91.298 19.5223 91.298 19.8407C91.298 20.1591 91.298 20.4774 91.298 20.7958C91.298 21.1142 91.298 21.4325 91.3777 21.8305C91.3777 21.9897 91.3777 22.2284 91.4573 22.3876C91.4573 22.5468 91.537 22.706 91.6167 22.8652C91.6963 23.0244 91.8557 23.1835 91.9353 23.2631C92.254 23.4223 92.6523 23.4223 93.0507 23.2631C93.21 23.1835 93.2897 23.104 93.3693 22.9448C93.449 22.7856 93.5287 22.6264 93.5287 22.4672C93.5287 22.308 93.6083 22.0693 93.6083 21.9101V21.5121C93.6083 21.4325 93.6083 21.3529 93.688 21.2733C93.7677 21.1937 93.8473 21.1937 93.927 21.1937H94.3253C94.4847 21.1937 94.5643 21.2733 94.644 21.4325V22.308C94.644 22.5468 94.644 22.706 94.5643 22.9448C94.4847 23.1835 94.405 23.4223 94.2457 23.5815C94.0863 23.8203 93.8473 23.9795 93.6083 24.1386C93.2897 24.2978 92.8913 24.3774 92.493 24.3774C92.0947 24.3774 91.776 24.2978 91.3777 24.1386C91.1387 23.9795 90.8997 23.8203 90.7403 23.5815C90.581 23.3427 90.5013 23.1835 90.4217 22.9448C90.342 22.7856 90.342 22.5468 90.342 22.3876C90.342 21.9897 90.2623 21.5917 90.2623 21.1937C90.2623 20.7958 90.2623 20.3978 90.2623 19.9999V18.806C90.2623 18.408 90.2623 18.0101 90.342 17.6121C90.342 17.3733 90.4217 17.2142 90.4217 16.9754C90.5013 16.4182 90.8997 15.9407 91.3777 15.7019C91.776 15.5427 92.1743 15.4631 92.5727 15.4631C92.8913 15.4631 93.21 15.5427 93.5287 15.7019C93.7677 15.8611 93.927 16.0203 94.0863 16.1795C94.2457 16.3386 94.3253 16.5774 94.405 16.8162C94.4847 16.9754 94.4847 17.2142 94.4847 17.3733V17.8509Z" fill="#555555"/>
<path d="M96.795 24.2978C96.7154 24.2978 96.6357 24.2978 96.6357 24.2182C96.556 24.1386 96.556 24.059 96.556 23.9795V15.8611C96.556 15.7815 96.556 15.7019 96.6357 15.7019C96.7154 15.6223 96.795 15.6223 96.795 15.6223H97.273C97.3527 15.6223 97.4324 15.6223 97.512 15.7019C97.5917 15.7815 97.5917 15.8611 97.5917 15.8611V23.9795C97.5917 24.059 97.5917 24.1386 97.512 24.2182C97.4324 24.2978 97.3527 24.2978 97.273 24.2978H96.795Z" fill="#555555"/>
<path d="M103.806 24.059C103.806 24.1386 103.806 24.2182 103.726 24.2182C103.646 24.2978 103.567 24.2978 103.567 24.2978H100.3C100.221 24.2978 100.141 24.2978 100.061 24.2182C99.9817 24.1386 99.9817 24.059 99.9817 23.9795V15.8611C99.9817 15.7815 99.9817 15.7019 100.061 15.7019C100.141 15.6223 100.221 15.6223 100.3 15.6223H103.487C103.567 15.6223 103.646 15.6223 103.726 15.7019C103.806 15.7815 103.806 15.8611 103.806 15.9407V16.3386C103.806 16.4182 103.806 16.4978 103.726 16.4978C103.646 16.5774 103.567 16.5774 103.487 16.5774H101.017V19.2835H103.089C103.168 19.2835 103.248 19.2835 103.328 19.3631C103.407 19.4427 103.407 19.5223 103.407 19.6019V19.9999C103.407 20.0795 103.407 20.159 103.328 20.159C103.248 20.2386 103.168 20.2386 103.089 20.2386H101.017V23.2631H103.567C103.646 23.2631 103.726 23.2631 103.726 23.3427C103.806 23.4223 103.806 23.5019 103.806 23.5815V24.059Z" fill="#555555"/>
<path d="M106.355 17.1346L106.514 19.7611V24.059C106.514 24.1386 106.514 24.2182 106.435 24.2978C106.355 24.3774 106.275 24.3774 106.196 24.3774H105.797C105.718 24.3774 105.638 24.3774 105.558 24.2978C105.479 24.2182 105.479 24.1386 105.479 24.059V15.8611C105.479 15.7815 105.479 15.7019 105.558 15.7019C105.638 15.6223 105.718 15.6223 105.797 15.6223H106.514C106.594 15.6223 106.674 15.6223 106.674 15.7019C106.674 15.7815 106.753 15.8611 106.753 15.8611L109.143 22.7856L108.984 20.3182V15.9407C108.984 15.8611 108.984 15.7815 109.064 15.7019C109.143 15.6223 109.223 15.6223 109.303 15.6223H109.701C109.781 15.6223 109.86 15.6223 109.94 15.7019C110.02 15.7815 110.02 15.8611 110.02 15.9407V24.059C110.02 24.1386 110.02 24.2182 109.94 24.2182C109.86 24.2978 109.781 24.2978 109.701 24.2978H108.984C108.904 24.2978 108.825 24.2978 108.825 24.2182C108.745 24.1386 108.745 24.059 108.745 24.059L106.355 17.1346Z" fill="#555555"/>
<path d="M116.154 17.8509C116.154 17.9305 116.154 18.0101 116.074 18.0101C115.995 18.0897 115.915 18.0897 115.835 18.0897H115.517C115.437 18.0897 115.357 18.0897 115.357 18.0101C115.278 17.9305 115.278 17.8509 115.278 17.8509V17.6917C115.278 17.5325 115.278 17.3733 115.198 17.2142C115.198 17.055 115.118 16.9754 115.039 16.8162C114.959 16.7366 114.879 16.5774 114.72 16.5774C114.561 16.4978 114.401 16.4978 114.242 16.4978C114.003 16.4978 113.844 16.4978 113.684 16.5774C113.525 16.657 113.445 16.7366 113.366 16.8958C113.286 17.055 113.206 17.2142 113.206 17.3733C113.206 17.5325 113.127 17.7713 113.127 17.9305C113.127 18.3284 113.047 18.6468 113.047 18.9652C113.047 19.2835 113.047 19.6019 113.047 19.9203V20.8754C113.047 21.1937 113.047 21.5121 113.127 21.9101C113.127 22.0693 113.127 22.308 113.206 22.4672C113.206 22.6264 113.286 22.7856 113.366 22.9448C113.445 23.104 113.525 23.1835 113.684 23.3427C113.844 23.4223 114.083 23.5019 114.242 23.5019C114.401 23.5019 114.561 23.4223 114.72 23.3427C114.879 23.2631 114.959 23.1835 115.039 23.0244C115.118 22.8652 115.198 22.706 115.198 22.5468C115.198 22.3876 115.278 22.1488 115.278 21.9897V21.5917C115.278 21.5121 115.278 21.4325 115.357 21.3529C115.437 21.2733 115.517 21.2733 115.596 21.2733H115.995C116.074 21.2733 116.154 21.2733 116.234 21.3529C116.313 21.4325 116.313 21.5121 116.313 21.5917V22.3876C116.313 22.6264 116.313 22.7856 116.234 23.0244C116.154 23.2631 116.074 23.5019 115.915 23.6611C115.756 23.8999 115.517 24.0591 115.278 24.2182C114.959 24.3774 114.561 24.457 114.162 24.457C113.764 24.457 113.445 24.3774 113.047 24.2182C112.808 24.0591 112.569 23.8999 112.41 23.6611C112.25 23.4223 112.171 23.2631 112.091 23.0244C112.011 22.8652 112.011 22.6264 112.011 22.4672C112.011 22.0693 111.932 21.6713 111.932 21.2733C111.932 20.8754 111.932 20.4774 111.932 20.0795V18.806C111.932 18.408 111.932 18.0101 112.011 17.6121C112.011 17.3733 112.011 17.2142 112.091 16.9754C112.171 16.7366 112.25 16.4978 112.41 16.2591C112.569 16.0203 112.808 15.8611 113.047 15.7019C113.445 15.5427 113.844 15.4631 114.242 15.4631C114.561 15.4631 114.879 15.5427 115.198 15.7019C115.676 15.9407 115.995 16.3386 116.074 16.8958C116.154 17.055 116.154 17.2937 116.154 17.4529V17.8509Z" fill="#555555"/>
<path d="M121.81 24.059C121.81 24.1386 121.81 24.2182 121.731 24.2182C121.651 24.2978 121.571 24.2978 121.492 24.2978H118.225C118.146 24.2978 118.066 24.2978 118.066 24.2182C117.986 24.1386 117.986 24.059 117.986 23.9795V15.8611C117.986 15.7815 117.986 15.7019 118.066 15.7019C118.146 15.6223 118.225 15.6223 118.225 15.6223H121.412C121.492 15.6223 121.571 15.6223 121.571 15.7019C121.651 15.7815 121.651 15.8611 121.651 15.9407V16.3386C121.651 16.4182 121.651 16.4978 121.571 16.4978C121.492 16.5774 121.412 16.5774 121.412 16.5774H118.942V19.2835H121.093C121.173 19.2835 121.253 19.2835 121.332 19.3631C121.412 19.4427 121.412 19.5223 121.412 19.6019V19.9999C121.412 20.0795 121.412 20.159 121.332 20.2386C121.253 20.3182 121.173 20.3182 121.093 20.3182H118.942V23.3427H121.492C121.571 23.3427 121.651 23.3427 121.651 23.4223C121.731 23.5019 121.731 23.5815 121.731 23.6611L121.81 24.059Z" fill="#555555"/>
<path d="M128.502 15.6223C128.662 15.6223 128.741 15.7019 128.821 15.9407L130.414 24.059C130.414 24.1386 130.414 24.2182 130.414 24.2978C130.335 24.3774 130.255 24.3774 130.255 24.3774H129.777C129.618 24.3774 129.538 24.2978 129.458 24.059L129.14 22.6264H127.467L127.148 24.059C127.148 24.2182 126.989 24.3774 126.829 24.3774H126.351C126.272 24.3774 126.192 24.3774 126.192 24.2978C126.112 24.2182 126.112 24.1386 126.112 24.059L127.785 15.9407C127.785 15.8611 127.785 15.7815 127.865 15.7815C127.945 15.7019 128.024 15.7019 128.024 15.7019L128.502 15.6223ZM128.98 21.6713L128.502 18.6468L128.343 16.9754H128.263L128.104 18.6468L127.626 21.6713H128.98Z" fill="#555555"/>
<path d="M133.123 17.1346L133.282 19.7611V24.059C133.282 24.1386 133.282 24.2182 133.203 24.2978C133.123 24.3774 133.043 24.3774 132.964 24.3774H132.565C132.486 24.3774 132.406 24.3774 132.326 24.2978C132.247 24.2182 132.247 24.1386 132.247 24.059V15.8611C132.247 15.7815 132.247 15.7019 132.326 15.7019C132.406 15.6223 132.486 15.6223 132.565 15.6223H133.282C133.362 15.6223 133.442 15.6223 133.442 15.7019C133.442 15.7815 133.521 15.8611 133.521 15.8611L135.832 22.7856L135.672 20.3182V15.9407C135.672 15.8611 135.672 15.7815 135.752 15.7019C135.832 15.6223 135.911 15.6223 135.991 15.6223H136.389C136.469 15.6223 136.549 15.6223 136.549 15.7019C136.628 15.7815 136.628 15.8611 136.628 15.9407V24.059C136.628 24.1386 136.628 24.2182 136.549 24.2182C136.469 24.2978 136.389 24.2978 136.389 24.2978H135.672C135.593 24.2978 135.513 24.2978 135.513 24.2182C135.433 24.1386 135.433 24.059 135.433 24.059L133.123 17.1346Z" fill="#555555"/>
<path d="M139.018 15.8611C139.018 15.7815 139.018 15.7019 139.098 15.7019C139.178 15.6223 139.257 15.6223 139.337 15.6223H141.249C141.647 15.6223 141.966 15.7019 142.364 15.7815C142.603 15.9407 142.842 16.0999 143.002 16.259C143.161 16.4182 143.241 16.657 143.32 16.8958C143.4 17.1346 143.4 17.2937 143.4 17.4529C143.48 18.2488 143.559 19.0448 143.559 19.9203C143.559 20.7162 143.48 21.5917 143.4 22.3876C143.4 22.6264 143.32 22.7856 143.32 23.0244C143.241 23.5019 142.842 23.9795 142.364 24.1386C141.966 24.2978 141.568 24.3774 141.169 24.3774H139.417C139.337 24.3774 139.257 24.3774 139.178 24.2978C139.098 24.2182 139.098 24.1386 139.098 24.1386L139.018 15.8611ZM139.974 23.3427H141.169C141.408 23.3427 141.568 23.3427 141.727 23.2631C141.886 23.1835 141.966 23.1039 142.046 22.9448C142.125 22.7856 142.205 22.6264 142.205 22.4672C142.205 22.308 142.285 22.1488 142.285 21.9101C142.364 21.2733 142.364 20.557 142.364 19.9203C142.364 19.2835 142.285 18.6468 142.205 18.0101C142.205 17.8509 142.125 17.6917 142.125 17.5325C142.125 17.3733 142.046 17.2142 141.966 17.055C141.886 16.8958 141.807 16.8162 141.647 16.7366C141.488 16.657 141.249 16.5774 141.09 16.657H139.974V23.3427Z" fill="#555555"/>
<path d="M151.446 16.3386C151.446 16.4182 151.446 16.4978 151.367 16.5774C151.287 16.657 151.207 16.657 151.128 16.657H149.773V24.059C149.773 24.1386 149.773 24.2182 149.694 24.2978C149.614 24.3774 149.534 24.3774 149.455 24.3774H149.056C148.977 24.3774 148.897 24.3774 148.897 24.2978C148.817 24.2182 148.817 24.1386 148.817 24.059V16.657H147.383C147.304 16.657 147.224 16.657 147.224 16.5774C147.144 16.4978 147.144 16.4182 147.144 16.3386V15.9407C147.144 15.8611 147.144 15.7815 147.224 15.7019C147.304 15.6223 147.383 15.6223 147.383 15.6223H151.207C151.287 15.6223 151.367 15.6223 151.446 15.7019C151.526 15.7815 151.526 15.8611 151.526 15.9407L151.446 16.3386Z" fill="#555555"/>
<path d="M156.784 24.059C156.784 24.1386 156.784 24.2182 156.704 24.2182C156.625 24.2978 156.545 24.2978 156.465 24.2978H153.199C153.119 24.2978 153.04 24.2978 152.96 24.2182C152.88 24.1386 152.88 24.059 152.88 23.9795V15.8611C152.88 15.7815 152.88 15.7019 152.96 15.7019C153.04 15.6223 153.119 15.6223 153.199 15.6223H156.386C156.465 15.6223 156.545 15.6223 156.625 15.7019C156.704 15.7815 156.704 15.8611 156.704 15.9407V16.3386C156.704 16.4182 156.704 16.4978 156.625 16.4978C156.545 16.5774 156.465 16.5774 156.386 16.5774H153.916V19.2835H156.067C156.147 19.2835 156.226 19.2835 156.226 19.3631C156.306 19.4427 156.306 19.5223 156.306 19.6019V19.9999C156.306 20.0795 156.306 20.159 156.226 20.2386C156.147 20.3182 156.067 20.3182 156.067 20.3182H153.916V23.3427H156.465C156.545 23.3427 156.625 23.3427 156.704 23.4223C156.784 23.5019 156.784 23.5815 156.784 23.6611V24.059Z" fill="#555555"/>
<path d="M162.52 17.8509C162.52 17.9305 162.52 18.0101 162.44 18.0101C162.361 18.0897 162.281 18.0897 162.201 18.0897H161.723C161.644 18.0897 161.564 18.0897 161.484 18.0101C161.405 17.9305 161.405 17.8509 161.405 17.8509V17.6917C161.405 17.5325 161.405 17.3733 161.325 17.2142C161.325 17.055 161.245 16.9754 161.166 16.8162C161.086 16.657 161.006 16.5774 160.847 16.5774C160.688 16.4978 160.528 16.4978 160.369 16.4978C160.13 16.4978 159.971 16.4978 159.811 16.5774C159.652 16.657 159.572 16.7366 159.493 16.8958C159.413 17.055 159.333 17.2142 159.333 17.3733C159.333 17.5325 159.254 17.7713 159.254 17.9305C159.254 18.3284 159.254 18.6468 159.174 18.9652C159.094 19.2835 159.174 19.6019 159.174 19.9203C159.174 20.2386 159.174 20.557 159.174 20.8754C159.174 21.1937 159.174 21.5121 159.254 21.9101C159.254 22.0693 159.254 22.308 159.333 22.4672C159.333 22.6264 159.413 22.7856 159.493 22.9448C159.572 23.104 159.652 23.1835 159.811 23.3427C159.971 23.4223 160.21 23.5019 160.369 23.5019C160.528 23.5019 160.688 23.4223 160.847 23.3427C161.006 23.2631 161.086 23.1835 161.166 23.0244C161.245 22.8652 161.325 22.706 161.325 22.5468C161.325 22.3876 161.405 22.1488 161.405 21.9897V21.5917C161.405 21.5121 161.405 21.4325 161.484 21.3529C161.564 21.2733 161.644 21.2733 161.723 21.2733H162.122C162.201 21.2733 162.281 21.2733 162.281 21.3529C162.361 21.4325 162.361 21.5121 162.361 21.5917V22.3876C162.361 22.6264 162.361 22.7856 162.281 23.0244C162.201 23.2631 162.122 23.5019 161.962 23.6611C161.803 23.8999 161.564 24.0591 161.325 24.2182C161.006 24.3774 160.608 24.457 160.21 24.457C159.811 24.457 159.493 24.3774 159.094 24.2182C158.855 24.0591 158.616 23.8999 158.457 23.6611C158.298 23.4223 158.218 23.2631 158.138 23.0244C158.059 22.8652 158.059 22.6264 158.059 22.4672C158.059 22.0693 157.979 21.6713 157.979 21.2733C157.979 20.8754 157.979 20.4774 157.979 20.0795V18.806C157.979 18.408 157.979 18.0101 158.059 17.6121C158.059 17.3733 158.059 17.2142 158.138 16.9754C158.218 16.7366 158.298 16.4978 158.457 16.2591C158.616 16.0203 158.855 15.8611 159.094 15.7019C159.493 15.5427 159.891 15.4631 160.289 15.4631C160.608 15.4631 160.927 15.5427 161.245 15.7019C161.484 15.8611 161.644 16.0203 161.803 16.1795C161.962 16.3386 162.042 16.5774 162.042 16.8162C162.122 16.9754 162.122 17.2142 162.122 17.3733L162.52 17.8509Z" fill="#555555"/>
<path d="M167.858 24.2978C167.778 24.2978 167.698 24.2978 167.698 24.2182C167.619 24.1386 167.619 24.059 167.619 23.9795V20.2386H165.308V23.9795C165.308 24.059 165.308 24.1386 165.229 24.2182C165.149 24.2978 165.069 24.2978 164.99 24.2978H164.591C164.512 24.2978 164.432 24.2978 164.352 24.2182C164.273 24.1386 164.273 24.059 164.273 23.9795V15.8611C164.273 15.7815 164.273 15.7019 164.352 15.7019C164.432 15.6223 164.512 15.6223 164.591 15.6223H164.99C165.069 15.6223 165.149 15.6223 165.229 15.7019C165.308 15.7815 165.308 15.8611 165.308 15.8611V19.2835H167.619V15.8611C167.619 15.7815 167.619 15.7019 167.698 15.7019C167.778 15.6223 167.858 15.6223 167.858 15.6223H168.256C168.336 15.6223 168.415 15.6223 168.495 15.7019C168.575 15.7815 168.575 15.8611 168.575 15.8611V23.9795C168.575 24.059 168.575 24.1386 168.495 24.1386C168.415 24.2182 168.336 24.2182 168.256 24.2182L167.858 24.2978Z" fill="#555555"/>
<path d="M171.682 17.1346L171.841 19.7611V24.059C171.841 24.1386 171.841 24.2182 171.761 24.2978C171.682 24.3774 171.602 24.3774 171.522 24.3774H171.124C171.044 24.3774 170.965 24.3774 170.885 24.2978C170.805 24.2182 170.805 24.1386 170.805 24.059V15.8611C170.805 15.7815 170.805 15.7019 170.885 15.7019C170.965 15.6223 171.044 15.6223 171.124 15.6223H171.841C171.921 15.6223 172 15.6223 172 15.7019C172 15.7815 172.08 15.8611 172.08 15.8611L174.39 22.7856L174.231 20.3182V15.9407C174.231 15.8611 174.231 15.7815 174.311 15.7019C174.39 15.6223 174.47 15.6223 174.55 15.6223H174.948C175.028 15.6223 175.107 15.6223 175.187 15.7019C175.267 15.7815 175.267 15.8611 175.267 15.9407V24.059C175.267 24.1386 175.267 24.2182 175.187 24.2182C175.107 24.2978 175.028 24.2978 174.948 24.2978H174.231C174.151 24.2978 174.072 24.2978 174.072 24.2182C173.992 24.1386 173.992 24.059 173.992 24.059L171.682 17.1346Z" fill="#555555"/>
<path d="M179.489 24.457C179.091 24.457 178.692 24.3774 178.374 24.2182C178.135 24.0591 177.896 23.8999 177.736 23.6611C177.577 23.4223 177.497 23.1835 177.418 22.9448C177.338 22.706 177.338 22.5468 177.338 22.308C177.338 21.5121 177.258 20.7162 177.258 19.9999C177.258 19.2835 177.258 18.4876 177.338 17.6917C177.338 17.4529 177.418 17.2937 177.418 17.055C177.497 16.8162 177.577 16.5774 177.736 16.3386C177.896 16.0999 178.135 15.9407 178.374 15.7815C179.091 15.4631 179.887 15.4631 180.604 15.7815C180.843 15.9407 181.082 16.0999 181.242 16.3386C181.401 16.5774 181.481 16.8162 181.56 17.055C181.64 17.2937 181.64 17.4529 181.64 17.6917C181.64 18.4876 181.72 19.2835 181.72 19.9999C181.72 20.7162 181.72 21.5121 181.64 22.308C181.64 22.5468 181.56 22.706 181.56 22.9448C181.481 23.1835 181.401 23.4223 181.242 23.6611C181.082 23.8999 180.843 24.0591 180.604 24.2182C180.286 24.3774 179.887 24.457 179.489 24.457ZM179.489 16.4978C179.25 16.4978 179.091 16.4978 178.931 16.657C178.772 16.7366 178.692 16.8958 178.613 16.9754C178.533 17.1346 178.453 17.2937 178.453 17.4529C178.453 17.6121 178.374 17.8509 178.374 18.0101C178.374 18.6468 178.294 19.3631 178.294 19.9203C178.294 20.4774 178.294 21.1937 178.374 21.8305C178.374 21.9897 178.374 22.2284 178.453 22.3876C178.453 22.5468 178.533 22.706 178.613 22.8652C178.692 23.0244 178.772 23.1039 178.931 23.1835C179.091 23.2631 179.33 23.3427 179.489 23.3427C179.648 23.3427 179.887 23.3427 180.047 23.1835C180.206 23.1039 180.286 22.9448 180.365 22.8652C180.445 22.706 180.525 22.5468 180.525 22.3876C180.525 22.2284 180.525 21.9897 180.604 21.8305C180.604 21.1937 180.684 20.4774 180.684 19.9203C180.684 19.3631 180.684 18.6468 180.604 18.0101C180.604 17.8509 180.604 17.6121 180.525 17.4529C180.525 17.2937 180.445 17.1346 180.365 16.9754C180.286 16.8162 180.206 16.7366 180.047 16.657C179.887 16.4978 179.648 16.4978 179.489 16.4978Z" fill="#555555"/>
<path d="M187.296 24.059C187.296 24.1386 187.296 24.2182 187.217 24.2182C187.137 24.2978 187.057 24.2978 187.057 24.2978H184.03C183.95 24.2978 183.871 24.2978 183.791 24.2182C183.711 24.1386 183.711 24.059 183.711 23.9795V15.8611C183.711 15.7815 183.711 15.7019 183.791 15.7019C183.871 15.6223 183.95 15.6223 184.03 15.6223H184.428C184.508 15.6223 184.588 15.6223 184.667 15.7019C184.747 15.7815 184.747 15.8611 184.747 15.8611V23.3427H187.137C187.217 23.3427 187.296 23.3427 187.376 23.4223C187.456 23.5019 187.456 23.5815 187.456 23.6611L187.296 24.059Z" fill="#555555"/>
<path d="M190.244 24.457C189.846 24.457 189.447 24.3774 189.129 24.2182C188.89 24.0591 188.651 23.8999 188.491 23.6611C188.332 23.4223 188.252 23.1835 188.173 22.9448C188.093 22.706 188.093 22.5468 188.093 22.308C188.093 21.5121 188.013 20.7162 188.013 19.9999C188.013 19.2835 188.013 18.4876 188.093 17.6917C188.093 17.4529 188.173 17.2937 188.173 17.055C188.252 16.8162 188.332 16.5774 188.491 16.3386C188.651 16.0999 188.89 15.9407 189.129 15.7815C189.846 15.4631 190.642 15.4631 191.359 15.7815C191.598 15.9407 191.837 16.0999 191.997 16.3386C192.156 16.5774 192.236 16.8162 192.315 17.055C192.395 17.2937 192.395 17.4529 192.395 17.6917C192.475 18.4876 192.475 19.2835 192.475 19.9999C192.475 20.7162 192.475 21.5121 192.395 22.308C192.395 22.5468 192.395 22.706 192.315 22.9448C192.236 23.1835 192.156 23.4223 191.997 23.6611C191.837 23.8999 191.598 24.0591 191.359 24.2182C190.961 24.3774 190.642 24.457 190.244 24.457ZM190.244 16.4978C190.085 16.4978 189.846 16.4978 189.686 16.657C189.527 16.7366 189.447 16.8958 189.368 16.9754C189.288 17.1346 189.208 17.2937 189.208 17.4529C189.208 17.6121 189.129 17.8509 189.129 18.0101C189.049 18.6468 189.049 19.3631 189.049 19.9203C189.049 20.4774 189.049 21.1937 189.129 21.8305C189.129 21.9897 189.129 22.2284 189.208 22.3876C189.208 22.5468 189.288 22.706 189.368 22.8652C189.447 23.0244 189.527 23.1039 189.686 23.1835C190.005 23.3427 190.483 23.3427 190.802 23.1835C190.961 23.1039 191.041 22.9448 191.12 22.8652C191.2 22.706 191.28 22.5468 191.28 22.3876C191.28 22.2284 191.359 21.9897 191.359 21.8305C191.359 21.1937 191.439 20.4774 191.439 19.9203C191.439 19.3631 191.439 18.6468 191.359 18.0101C191.359 17.8509 191.359 17.6121 191.28 17.4529C191.28 17.2937 191.2 17.1346 191.12 16.9754C191.041 16.8162 190.961 16.7366 190.802 16.657C190.642 16.4978 190.403 16.4978 190.244 16.4978Z" fill="#555555"/>
<path d="M198.37 19.6019V24.0591C198.37 24.1386 198.37 24.2182 198.29 24.2182C198.211 24.2978 198.131 24.2978 198.131 24.2978H197.733C197.653 24.2978 197.573 24.2978 197.573 24.2182C197.573 24.1386 197.494 24.1386 197.494 24.0591V23.9795C197.334 24.1386 197.175 24.2978 197.016 24.2978C196.458 24.457 195.9 24.3774 195.422 24.1386C195.183 23.9795 194.944 23.7407 194.785 23.5019C194.626 23.2631 194.546 23.0244 194.466 22.7856C194.387 22.6264 194.387 22.3876 194.387 22.1489C194.307 21.4325 194.307 20.6366 194.307 19.9203C194.307 19.204 194.307 18.408 194.387 17.6917C194.387 17.4529 194.466 17.2142 194.466 16.9754C194.546 16.7366 194.626 16.4978 194.785 16.2591C194.944 16.0203 195.183 15.8611 195.422 15.7019C195.741 15.5427 196.139 15.4631 196.458 15.4631C196.856 15.4631 197.255 15.5427 197.573 15.7019C198.051 15.9407 198.37 16.4182 198.45 16.9754C198.45 17.1346 198.529 17.3733 198.529 17.5325V17.6917C198.529 17.7713 198.529 17.8509 198.45 17.8509C198.37 17.9305 198.29 17.9305 198.29 17.9305H197.892C197.812 17.9305 197.733 17.9305 197.653 17.8509C197.573 17.7713 197.573 17.6917 197.573 17.6917C197.573 17.5325 197.573 17.4529 197.573 17.2937C197.573 17.1346 197.494 17.055 197.494 16.8958C197.414 16.7366 197.334 16.657 197.175 16.5774C197.016 16.4978 196.777 16.4182 196.617 16.4978C196.458 16.4978 196.219 16.4978 196.06 16.5774C195.9 16.657 195.821 16.7366 195.741 16.8958C195.661 17.055 195.582 17.2142 195.582 17.3733C195.582 17.5325 195.502 17.6917 195.502 17.9305C195.422 18.6468 195.422 19.3631 195.422 19.9999C195.422 20.7162 195.502 21.3529 195.502 22.0693C195.502 22.4672 195.661 22.8652 195.821 23.1835C195.98 23.4223 196.299 23.5815 196.538 23.5019C196.777 23.5019 196.936 23.5019 197.095 23.3427C197.255 23.2631 197.334 23.104 197.414 22.9448C197.494 22.7856 197.494 22.6264 197.573 22.4672C197.573 22.308 197.573 22.0693 197.573 21.9101V20.557H196.538C196.458 20.557 196.378 20.557 196.378 20.4774C196.299 20.3978 196.299 20.3182 196.299 20.2386V19.8407C196.299 19.7611 196.299 19.6815 196.378 19.6019C196.458 19.5223 196.538 19.5223 196.538 19.5223L198.37 19.6019Z" fill="#555555"/>
<path d="M201.716 24.2978C201.636 24.2978 201.557 24.2978 201.477 24.2182C201.397 24.1386 201.397 24.0591 201.397 23.9795V20.2386L199.804 15.7815C199.804 15.7019 199.804 15.6223 199.804 15.6223C199.884 15.6223 199.884 15.5427 199.963 15.5427H200.441C200.521 15.5427 200.601 15.5427 200.601 15.6223C200.68 15.7019 200.68 15.7815 200.68 15.8611L201.716 19.0448L202.831 15.8611C202.831 15.7815 202.911 15.7019 202.911 15.6223C202.991 15.5427 203.07 15.5427 203.07 15.5427H203.628C203.708 15.5427 203.787 15.5427 203.867 15.6223C203.867 15.7019 203.867 15.7815 203.867 15.7815L202.194 20.2386V23.9795C202.194 24.0591 202.194 24.1386 202.114 24.2182C202.035 24.2978 201.955 24.2978 201.875 24.2978H201.716Z" fill="#555555"/>
<path d="M64.9283 37.0326C64.9283 37.1918 64.9283 37.4306 65.008 37.5898C65.008 37.749 65.0877 37.9081 65.1673 38.0673C65.247 38.2265 65.4063 38.3061 65.486 38.3857C65.8843 38.5449 66.2827 38.5449 66.681 38.3857C66.8403 38.3061 66.92 38.2265 66.9997 38.0673C67.0793 37.9081 67.159 37.749 67.159 37.5898C67.159 37.4306 67.159 37.1918 67.159 37.0326V30.9041C67.159 30.8245 67.159 30.7449 67.2387 30.7449C67.3183 30.6653 67.398 30.6653 67.4777 30.6653H67.876C68.0353 30.6653 68.115 30.7449 68.1947 30.9041V37.4306C68.1947 37.6694 68.1947 37.8285 68.115 38.0673C68.0353 38.3061 67.9557 38.5449 67.7963 38.7041C67.637 38.9428 67.398 39.102 67.159 39.2612C66.7607 39.4204 66.3623 39.5 65.964 39.5C65.5657 39.5 65.247 39.4204 64.8487 39.2612C64.6097 39.102 64.3707 38.9428 64.2113 38.7836C64.052 38.6245 63.9723 38.3857 63.8927 38.1469C63.8927 37.9877 63.813 37.749 63.813 37.5898V30.9836C63.813 30.9041 63.813 30.8245 63.8927 30.7449C63.9723 30.6653 64.052 30.6653 64.1317 30.6653H64.53C64.6893 30.6653 64.8487 30.8245 64.8487 30.9041L64.9283 37.0326Z" fill="#555555"/>
<path d="M71.1423 32.1775L71.3017 34.8041V39.102C71.3017 39.1816 71.3017 39.2612 71.222 39.2612C71.1423 39.3408 71.0627 39.3408 70.983 39.3408H70.5847C70.505 39.3408 70.4253 39.3408 70.3457 39.2612C70.266 39.1816 70.266 39.102 70.266 39.0224V30.9041C70.266 30.8245 70.266 30.7449 70.3457 30.7449C70.4253 30.6653 70.505 30.6653 70.5847 30.6653H71.3017C71.3813 30.6653 71.461 30.6653 71.461 30.7449C71.461 30.8245 71.5407 30.9041 71.5407 30.9041L73.851 37.8285L73.6917 35.3612V30.9836C73.6917 30.9041 73.6917 30.8245 73.7713 30.7449C73.851 30.6653 73.9307 30.6653 74.0103 30.6653H74.4087C74.4883 30.6653 74.568 30.6653 74.6477 30.7449C74.7273 30.8245 74.7273 30.9041 74.7273 30.9836V39.102C74.7273 39.2612 74.568 39.4204 74.4087 39.3408H73.6917C73.612 39.3408 73.5323 39.3408 73.5323 39.2612C73.5323 39.1816 73.4527 39.102 73.4527 39.102L71.1423 32.1775Z" fill="#555555"/>
<path d="M77.5157 39.4204C77.436 39.4204 77.3563 39.4204 77.3563 39.3408C77.2767 39.2612 77.2767 39.1816 77.2767 39.1816V30.9041C77.2767 30.8245 77.3563 30.7449 77.3563 30.7449C77.436 30.6653 77.5157 30.6653 77.5157 30.6653H77.914C77.9937 30.6653 78.0733 30.6653 78.0733 30.7449C78.153 30.8245 78.153 30.9041 78.153 30.9041V39.0224C78.153 39.102 78.153 39.1816 78.0733 39.1816C77.9937 39.2612 77.914 39.2612 77.8343 39.2612H77.5157V39.4204Z" fill="#555555"/>
<path d="M81.8177 39.4204C81.6583 39.4204 81.5787 39.3408 81.499 39.1816L79.826 31.0632C79.7463 30.9836 79.826 30.8245 79.9853 30.8245H80.065H80.543C80.7023 30.8245 80.782 30.9041 80.8617 31.1428L81.3397 33.7694L81.977 37.6694L82.6143 33.7694L83.0923 31.1428C83.0923 30.9836 83.2517 30.8245 83.411 30.8245H83.889C83.9687 30.8245 84.0483 30.8245 84.0483 30.9041C84.0483 30.9836 84.0483 31.0632 84.0483 31.1428L82.3753 39.2612C82.3753 39.4204 82.216 39.5 82.1363 39.5L81.8177 39.4204Z" fill="#555555"/>
<path d="M89.7843 39.102C89.7843 39.1816 89.7843 39.2612 89.7047 39.2612C89.625 39.3408 89.5453 39.3408 89.5453 39.3408H86.279C86.1993 39.3408 86.1197 39.3408 86.04 39.2612C85.9603 39.1816 85.9603 39.102 85.9603 39.102V30.9041C85.9603 30.8245 86.04 30.7449 86.04 30.7449C86.1197 30.6653 86.1993 30.6653 86.279 30.6653H89.4657C89.5453 30.6653 89.625 30.6653 89.7047 30.7449C89.7843 30.8245 89.7843 30.9041 89.7843 30.9836V31.4612C89.7843 31.5408 89.7843 31.6204 89.7047 31.7C89.625 31.7796 89.5453 31.7796 89.4657 31.7796H86.996V34.4857H89.0673C89.147 34.4857 89.2267 34.4857 89.3063 34.5653C89.386 34.6449 89.386 34.7245 89.386 34.8041V35.202C89.386 35.2816 89.386 35.3612 89.3063 35.3612C89.2267 35.4408 89.147 35.4408 89.0673 35.4408H86.996V38.4653H89.5453C89.625 38.4653 89.7047 38.4653 89.7047 38.5449C89.7843 38.6245 89.7843 38.7041 89.7843 38.7836V39.102Z" fill="#555555"/>
<path d="M95.9187 39.102C95.9187 39.1816 95.9187 39.1816 95.9187 39.2612C95.9187 39.3408 95.7594 39.3408 95.6797 39.3408H95.2017C95.122 39.3408 95.0424 39.3408 95.0424 39.2612C94.9627 39.1816 94.9627 39.102 94.9627 39.0224L93.7677 35.202H92.6524V39.0224C92.6524 39.102 92.6523 39.1816 92.5727 39.1816C92.493 39.2612 92.4134 39.2612 92.3337 39.2612H91.9354C91.8557 39.2612 91.776 39.2612 91.776 39.1816C91.6963 39.102 91.6964 39.102 91.6964 39.0224V30.9041C91.6964 30.7449 91.8557 30.6653 91.9354 30.5857H93.449C93.8474 30.5857 94.2457 30.5857 94.644 30.7449C94.9627 30.8245 95.2814 30.9837 95.4407 31.302C95.6 31.5408 95.6797 31.7796 95.7593 32.0183C95.839 32.3367 95.839 32.6551 95.839 32.9734C95.839 33.451 95.7594 33.9286 95.6 34.3265C95.4407 34.6449 95.122 34.8837 94.7237 35.0428L95.9187 39.102ZM92.5727 34.3265H93.3693C93.5287 34.3265 93.7677 34.3265 93.927 34.3265C94.0864 34.3265 94.2457 34.2469 94.3254 34.1673C94.405 34.0877 94.4847 34.0877 94.4847 34.0081C94.5644 33.9286 94.5644 33.849 94.644 33.7694C94.7237 33.6898 94.7237 33.6102 94.7237 33.451V33.053C94.7237 32.8143 94.7237 32.4959 94.644 32.2571C94.5644 32.0979 94.4847 31.9388 94.3254 31.8592C94.2457 31.8592 94.166 31.7796 94.166 31.7796C94.0863 31.7796 94.0067 31.7796 93.927 31.7796H92.6524L92.5727 34.3265Z" fill="#555555"/>
<path d="M101.655 37.0326C101.734 37.749 101.495 38.3857 101.097 38.9428C100.699 39.3408 100.061 39.5796 99.5037 39.5796C99.1053 39.5796 98.7867 39.5 98.468 39.3408C98.1493 39.1816 97.9103 39.0224 97.751 38.7041C97.5917 38.4653 97.4323 38.1469 97.4323 37.8286C97.3527 37.5102 97.3527 37.1122 97.3527 36.7939V36.6347C97.3527 36.5551 97.3527 36.4755 97.4323 36.4755C97.512 36.3959 97.5917 36.3959 97.6713 36.3959H98.0697C98.1493 36.3959 98.229 36.3959 98.229 36.4755C98.3087 36.5551 98.3087 36.6347 98.3087 36.6347V36.7939C98.3087 37.0326 98.3087 37.351 98.3883 37.5898C98.468 37.749 98.5477 37.9877 98.6273 38.0673C98.707 38.1469 98.8663 38.3061 99.0257 38.3061C99.185 38.3857 99.3443 38.3857 99.5037 38.3857C99.8223 38.3857 100.141 38.3061 100.38 38.0673C100.619 37.749 100.778 37.351 100.699 36.953C100.699 36.6347 100.619 36.3959 100.46 36.1571C100.3 35.9184 100.061 35.6796 99.8223 35.5204C99.5833 35.3612 99.3443 35.1224 99.0257 34.9632C98.707 34.8041 98.468 34.5653 98.229 34.3265C97.99 34.0877 97.751 33.849 97.5917 33.5306C97.4323 33.2122 97.3527 32.8143 97.3527 32.4163C97.3527 32.1775 97.4323 31.8592 97.512 31.6204C97.5917 31.3816 97.751 31.1428 97.9103 30.9837C98.0697 30.8245 98.3087 30.6653 98.5477 30.5061C98.8663 30.4265 99.1053 30.3469 99.424 30.3469C99.7427 30.3469 100.061 30.4265 100.3 30.5061C100.539 30.5857 100.778 30.7449 100.938 30.9837C101.097 31.1428 101.256 31.3816 101.336 31.6204C101.416 31.8592 101.495 32.0979 101.495 32.3367V32.4163C101.495 32.5755 101.416 32.6551 101.256 32.7347H100.858C100.778 32.7347 100.699 32.7347 100.619 32.6551C100.539 32.5755 100.539 32.4959 100.539 32.4959C100.539 32.1775 100.46 31.9388 100.3 31.7C100.141 31.5408 99.8223 31.3816 99.5833 31.3816C99.424 31.3816 99.2647 31.3816 99.1053 31.4612C98.946 31.5408 98.8663 31.6204 98.7867 31.7C98.707 31.7796 98.6273 31.9388 98.6273 32.0184C98.6273 32.1775 98.5477 32.2571 98.5477 32.4163C98.5477 32.7347 98.6273 32.9735 98.7867 33.2122C98.946 33.451 99.185 33.6898 99.424 33.849C99.663 34.0081 99.902 34.2469 100.221 34.4061C100.539 34.5653 100.778 34.8041 101.017 35.0428C101.256 35.2816 101.495 35.5204 101.655 35.8388C101.575 36.2367 101.655 36.6347 101.655 37.0326Z" fill="#555555"/>
<path d="M103.806 39.4204C103.726 39.4204 103.646 39.4204 103.567 39.3408C103.487 39.2612 103.487 39.1816 103.487 39.1816V30.9041C103.487 30.8245 103.487 30.7449 103.567 30.7449C103.646 30.6653 103.726 30.6653 103.806 30.6653H104.284C104.363 30.6653 104.443 30.6653 104.523 30.7449C104.602 30.8245 104.602 30.9041 104.602 30.9041V39.0224C104.602 39.102 104.602 39.1816 104.523 39.1816C104.443 39.2612 104.363 39.2612 104.284 39.2612H103.806V39.4204Z" fill="#555555"/>
<path d="M110.657 31.3816C110.657 31.4612 110.657 31.5408 110.577 31.6204C110.498 31.7 110.418 31.7 110.418 31.7H108.984V39.102C108.984 39.1816 108.984 39.2612 108.904 39.2612C108.825 39.3408 108.745 39.3408 108.665 39.3408H108.267C108.187 39.3408 108.108 39.3408 108.108 39.2612C108.028 39.1816 108.028 39.102 108.028 39.102V31.7H106.594C106.514 31.7 106.435 31.7 106.435 31.6204C106.355 31.5408 106.355 31.4612 106.355 31.3816V30.9836C106.355 30.9041 106.355 30.8245 106.435 30.7449C106.514 30.6653 106.594 30.6653 106.594 30.6653H110.418C110.498 30.6653 110.577 30.6653 110.577 30.7449C110.657 30.8245 110.657 30.9041 110.657 30.9836V31.3816Z" fill="#555555"/>
<path d="M113.445 39.4204C113.366 39.4204 113.286 39.4204 113.206 39.3408C113.127 39.2612 113.127 39.1816 113.127 39.1816V35.4408L111.533 30.9836C111.533 30.9041 111.533 30.8245 111.533 30.8245C111.613 30.7449 111.693 30.7449 111.772 30.7449H112.25C112.33 30.7449 112.41 30.7449 112.41 30.8245C112.489 30.9041 112.489 30.9836 112.489 31.0632L113.525 34.2469L114.64 31.0632C114.64 30.9836 114.72 30.9041 114.72 30.9041C114.8 30.8245 114.8 30.8245 114.879 30.8245H115.437C115.517 30.8245 115.596 30.8245 115.676 30.9041C115.676 30.9836 115.676 31.0632 115.676 31.0632L114.003 35.5204V39.2612C114.003 39.3408 114.003 39.4204 113.923 39.4204C113.844 39.5 113.764 39.5 113.684 39.5L113.445 39.4204Z" fill="#555555"/>
<path d="M124.439 39.102C124.439 39.1816 124.439 39.2612 124.36 39.2612C124.28 39.3408 124.2 39.3408 124.121 39.3408H121.093C121.014 39.3408 120.934 39.3408 120.854 39.2612C120.775 39.1816 120.775 39.102 120.775 39.102V30.9041C120.775 30.8245 120.775 30.7449 120.854 30.7449C120.934 30.6653 121.014 30.6653 121.093 30.6653H121.492C121.571 30.6653 121.651 30.6653 121.731 30.7449C121.81 30.8245 121.81 30.9041 121.81 30.9041V38.3857H124.2C124.28 38.3857 124.36 38.3857 124.36 38.4653C124.439 38.5449 124.439 38.6245 124.439 38.7041V39.102Z" fill="#555555"/>
<path d="M126.351 39.4204C126.272 39.4204 126.192 39.4204 126.112 39.3408C126.033 39.2612 126.033 39.1816 126.033 39.1816V30.9041C126.033 30.8245 126.033 30.7449 126.112 30.7449C126.192 30.6653 126.272 30.6653 126.351 30.6653H126.75C126.829 30.6653 126.909 30.6653 126.989 30.7449C127.068 30.8245 127.068 30.9041 127.068 30.9041V39.0224C127.068 39.102 127.068 39.1816 126.989 39.1816C126.909 39.2612 126.829 39.2612 126.75 39.2612H126.351V39.4204Z" fill="#555555"/>
<path d="M131.131 30.6653C131.45 30.6653 131.769 30.6653 132.008 30.7449C132.247 30.7449 132.486 30.8245 132.645 30.9041C132.964 31.0632 133.203 31.3816 133.282 31.7C133.442 32.0183 133.521 32.4163 133.521 32.8143C133.521 33.2918 133.521 33.7694 133.362 34.1673C133.282 34.3265 133.203 34.4061 133.123 34.5653C133.043 34.6449 132.884 34.7245 132.804 34.8041C133.123 34.8837 133.442 35.1224 133.601 35.4408C133.76 35.8388 133.84 36.3163 133.84 36.7143C133.84 37.0326 133.84 37.351 133.76 37.6694C133.76 37.9877 133.601 38.3061 133.442 38.5449C133.282 38.7837 133.043 39.0224 132.804 39.1816C132.406 39.3408 132.008 39.4204 131.609 39.4204H129.857C129.777 39.4204 129.697 39.4204 129.697 39.3408C129.618 39.2612 129.618 39.1816 129.618 39.1816V30.9041C129.618 30.8245 129.618 30.7449 129.697 30.6653C129.777 30.5857 129.777 30.5857 129.857 30.5857L131.131 30.6653ZM130.494 34.3265H131.291C131.45 34.3265 131.689 34.3265 131.848 34.3265C132.008 34.3265 132.167 34.2469 132.247 34.1673C132.406 34.0081 132.486 33.849 132.565 33.6898C132.645 33.451 132.645 33.1326 132.645 32.8143C132.645 32.5755 132.645 32.4163 132.565 32.1775C132.486 32.0183 132.406 31.9388 132.247 31.8592C132.087 31.7796 131.928 31.7 131.769 31.7H130.494V34.3265ZM130.494 35.2816V38.3857H131.53C131.689 38.3857 131.928 38.3857 132.087 38.3061C132.247 38.2265 132.406 38.1469 132.486 38.0673C132.645 37.9081 132.725 37.749 132.725 37.5898C132.804 37.2714 132.804 37.0326 132.804 36.7143C132.804 36.4755 132.804 36.2367 132.725 35.9979C132.645 35.8388 132.565 35.6796 132.406 35.6C132.247 35.5204 132.087 35.4408 131.928 35.4408C131.689 35.3612 131.45 35.3612 131.211 35.3612L130.494 35.2816Z" fill="#555555"/>
<path d="M140.054 39.102C140.054 39.1816 140.054 39.1816 140.054 39.2612C139.974 39.3408 139.895 39.3408 139.815 39.3408H139.337C139.257 39.3408 139.178 39.3408 139.178 39.2612C139.098 39.1816 139.098 39.102 139.018 39.0224L137.823 35.202H136.708V39.0224C136.708 39.102 136.708 39.1816 136.628 39.1816C136.549 39.2612 136.469 39.2612 136.389 39.2612H135.991C135.911 39.2612 135.832 39.2612 135.752 39.1816C135.672 39.102 135.672 39.102 135.672 39.0224V30.9041C135.672 30.8245 135.672 30.7449 135.752 30.6653C135.832 30.5857 135.911 30.5857 135.911 30.5857H137.425C137.823 30.5857 138.222 30.5857 138.62 30.7449C138.939 30.8245 139.257 30.9837 139.417 31.302C139.576 31.5408 139.656 31.7796 139.735 32.0183C139.815 32.3367 139.815 32.6551 139.815 32.9734C139.815 33.451 139.735 33.9286 139.576 34.3265C139.417 34.6449 139.098 34.9632 138.7 35.0428L140.054 39.102ZM136.708 34.3265H137.505C137.664 34.3265 137.903 34.3265 138.062 34.3265C138.222 34.3265 138.381 34.2469 138.461 34.1673C138.54 34.0877 138.62 34.0877 138.62 34.0081C138.7 33.9286 138.7 33.849 138.779 33.7694C138.859 33.6898 138.859 33.6102 138.859 33.451V33.053C138.859 32.8143 138.859 32.4959 138.779 32.2571C138.7 32.0979 138.62 31.9388 138.461 31.8592C138.381 31.8592 138.301 31.7796 138.301 31.7796C138.222 31.7796 138.142 31.7796 137.983 31.7796H136.628L136.708 34.3265Z" fill="#555555"/>
<path d="M143.878 30.6653C144.037 30.6653 144.117 30.7449 144.197 30.9836L145.79 39.102C145.79 39.1816 145.79 39.2612 145.79 39.3408C145.71 39.4204 145.631 39.4204 145.631 39.4204H145.153C144.993 39.4204 144.914 39.3408 144.834 39.1816L144.515 37.749H142.842L142.524 39.1816C142.524 39.3408 142.364 39.4204 142.205 39.4204H141.727C141.647 39.4204 141.568 39.4204 141.568 39.3408C141.568 39.2612 141.568 39.1816 141.568 39.1816L143.161 31.0632C143.161 30.9837 143.241 30.9041 143.241 30.8245C143.32 30.7449 143.4 30.7449 143.4 30.7449L143.878 30.6653ZM144.356 36.6347L143.878 33.6102L143.719 31.9388H143.639L143.48 33.6102L143.002 36.6347H144.356Z" fill="#555555"/>
<path d="M152.004 39.102C152.004 39.1816 152.004 39.1816 152.004 39.2612C152.004 39.3408 151.845 39.3408 151.765 39.3408H151.287C151.207 39.3408 151.128 39.3408 151.128 39.2612C151.048 39.1816 151.048 39.102 150.968 39.0224L149.773 35.202H148.658V39.0224C148.658 39.102 148.658 39.1816 148.578 39.1816C148.499 39.2612 148.419 39.2612 148.339 39.2612H147.941C147.782 39.2612 147.702 39.102 147.702 39.0224V30.9041C147.702 30.8245 147.702 30.7449 147.782 30.6653C147.861 30.5857 147.941 30.5857 147.941 30.5857H149.455C149.853 30.5857 150.251 30.5857 150.65 30.7449C150.968 30.8245 151.287 30.9837 151.446 31.302C151.606 31.5408 151.685 31.7796 151.765 32.0183C151.845 32.3367 151.845 32.6551 151.845 32.9734C151.845 33.451 151.765 33.9286 151.606 34.3265C151.446 34.6449 151.128 34.9632 150.729 35.0428L152.004 39.102ZM148.658 34.3265H149.455C149.614 34.3265 149.853 34.3265 150.012 34.3265C150.172 34.3265 150.331 34.2469 150.411 34.1673C150.49 34.1673 150.57 34.0877 150.65 34.0081C150.729 33.9286 150.729 33.849 150.809 33.7694C150.809 33.6898 150.889 33.6102 150.889 33.451C150.889 33.2918 150.889 33.2122 150.889 33.053C150.889 32.8143 150.889 32.4959 150.809 32.2571C150.729 32.0979 150.65 31.9388 150.49 31.8592C150.411 31.7796 150.331 31.7796 150.331 31.7796C150.251 31.7796 150.172 31.7796 150.092 31.7796H148.738L148.658 34.3265Z" fill="#555555"/>
<path d="M154.872 39.4204C154.792 39.4204 154.713 39.4204 154.633 39.3408C154.553 39.2612 154.553 39.1816 154.553 39.1816V35.4408L152.96 30.9836C152.96 30.9041 152.96 30.8245 152.96 30.8245C153.04 30.7449 153.119 30.7449 153.199 30.7449H153.677C153.757 30.7449 153.836 30.7449 153.836 30.8245C153.916 30.9041 153.916 30.9836 153.916 31.0632L154.952 34.2469L156.067 31.0632C156.067 30.9836 156.147 30.9041 156.147 30.8245C156.226 30.7449 156.226 30.7449 156.306 30.7449H156.864C156.943 30.7449 157.023 30.7449 157.103 30.8245C157.103 30.9041 157.103 30.9836 157.103 30.9836L155.43 35.4408V39.1816C155.43 39.2612 155.43 39.3408 155.35 39.3408C155.27 39.4204 155.191 39.4204 155.111 39.4204H154.872Z" fill="#555555"/>
</g>
<defs>
<clipPath id="clip0_746_5863">
<rect width="239" height="39" fill="white" transform="translate(0 0.5)"/>
</clipPath>
</defs>
</svg>
